<?xml version="1.0" standalone="no"?>
<!DOCTYPE svg PUBLIC "-//W3C//DTD SVG 1.1//EN" "http://www.w3.org/Graphics/SVG/1.1/DTD/svg11.dtd" >
<svg xmlns="http://www.w3.org/2000/svg">
<metadata></metadata>
<defs>
<font id="ctboomercondbook" horiz-adv-x="1079" >
<font-face units-per-em="2048" ascent="1638" descent="-410" />
<missing-glyph horiz-adv-x="391" />
<glyph horiz-adv-x="2048" />
<glyph horiz-adv-x="2048" />
<glyph unicode="&#xd;" horiz-adv-x="681" />
<glyph unicode=" "  horiz-adv-x="391" />
<glyph unicode="&#x09;" horiz-adv-x="391" />
<glyph unicode="&#xa0;" horiz-adv-x="391" />
<glyph unicode="!" horiz-adv-x="653" d="M211 0h229v250h-229v-250zM217 1518l33 -1090h151l33 1090h-217z" />
<glyph unicode="&#x22;" horiz-adv-x="905" d="M164 1466l20 -610h162l19 610h-201zM541 1466l20 -610h158l20 610h-198z" />
<glyph unicode="#" horiz-adv-x="1263" d="M86 412h197l-68 -412h184l68 412h227l-67 -412h186l66 412h301v168h-275l49 290h226v172h-197l68 424h-185l-69 -424h-228l70 424h-184l-70 -424h-299v-172h270l-49 -290h-221v-168zM492 575l49 302h233l-51 -302h-231z" />
<glyph unicode="$" horiz-adv-x="1120" d="M70 170q151 -156 403 -176v-170h156v172q180 20 273 125.5t93 273.5q0 96 -29.5 168t-92 118t-113.5 70.5t-137 55.5v485q137 -14 229 -88l102 139q-123 100 -325 117v129h-156v-129q-162 -20 -250 -120.5t-88 -264.5q0 -90 27.5 -156.5t83 -111.5t105.5 -70.5t128 -54.5 v-522q-174 18 -301 135zM313 1077q0 176 166 213v-428q-166 74 -166 215zM623 164v465q94 -41 144 -94.5t50 -143.5q1 -194 -194 -227z" />
<glyph unicode="%" horiz-adv-x="1982" d="M72 1001q0 -256 97 -368.5t261 -112.5q162 0 260 114t98 367q0 256 -98 370t-260 114q-164 0 -261 -114t-97 -370zM242 1001q0 326 188 326t188 -326q0 -327 -188 -327t-188 327zM537 0h180l710 1466h-182zM1194 465q0 -254 98 -367.5t260 -113.5q164 0 261.5 112.5 t97.5 368.5t-97.5 368.5t-261.5 112.5q-162 0 -260 -113.5t-98 -367.5zM1364 462.5q0 325.5 188.5 325.5t188.5 -325.5t-188.5 -325.5t-188.5 325.5z" />
<glyph unicode="&#x26;" horiz-adv-x="1449" d="M82 358q0 -174 110.5 -273t305.5 -99q207 0 344 96q139 -84 319 -84q86 0 178 31l-34 164q-78 -23 -138 -23q-106 0 -196 37q164 211 254 672l-164 28q-88 -455 -217 -612q-96 94 -185 278q-36 72 -73 193q80 49 111.5 70.5t96 73t92 92t52.5 107.5t25 140q0 141 -80 214 t-191 73q-145 0 -245.5 -87t-100.5 -286q0 -164 43 -336q-145 -92 -226 -197.5t-81 -271.5zM266 369q0 172 168 301q27 -82 68 -168q94 -199 207 -314q-82 -41 -197 -41q-121 0 -183.5 62.5t-62.5 159.5zM524 1167q0 109 45 156t107 47q49 0 82 -31.5t33 -97.5 q0 -104 -61.5 -177t-178.5 -149q-27 135 -27 252z" />
<glyph unicode="'" horiz-adv-x="530" d="M164 1466l20 -610h162l19 610h-201z" />
<glyph unicode="(" horiz-adv-x="819" d="M190 623q0 -348 106 -612.5t249 -409.5l135 114q-119 125 -207 361.5t-88 548.5q0 287 89 534.5t206 374.5l-135 115q-135 -137 -245 -424t-110 -602z" />
<glyph unicode=")" horiz-adv-x="819" d="M139 -285l135 -114q135 137 245 423.5t110 602.5q0 348 -105.5 612t-249.5 410l-135 -115q119 -125 207 -361.5t88 -547.5q0 -287 -89 -535t-206 -375z" />
<glyph unicode="*" horiz-adv-x="1017" d="M94 864l86 -133l266 203l-14 -344h152l-13 346l267 -203l86 129l-297 191l297 190l-86 129l-267 -205l15 353h-154l14 -349l-266 201l-86 -131l295 -188z" />
<glyph unicode="+" horiz-adv-x="1204" d="M176 633h338v-381h178v381h334v174h-334v379h-178v-379h-338v-174z" />
<glyph unicode="," horiz-adv-x="454" d="M106 -162l58 -92q104 59 141 125t37 195v184h-229v-250h108q0 -55 -23.5 -87t-91.5 -75z" />
<glyph unicode="-" horiz-adv-x="761" d="M84 555h594v172h-594v-172z" />
<glyph unicode="." horiz-adv-x="454" d="M113 0h229v250h-229v-250z" />
<glyph unicode="/" horiz-adv-x="897" d="M0 0h186l711 1518h-188z" />
<glyph unicode="0" horiz-adv-x="1216" d="M129 733q0 -399 124 -575t355.5 -176t356.5 176t125 575.5t-125 576.5t-357 177q-479 0 -479 -754zM319 729q0 307 69 443.5t220 136.5q154 0 222.5 -136.5t68.5 -443.5t-68.5 -442t-222.5 -135q-152 0 -220.5 135t-68.5 442z" />
<glyph unicode="1" horiz-adv-x="661" d="M47 1239q147 0 234 33v-1272h190v1466h-125q-88 -53 -299 -53v-174z" />
<glyph unicode="2" horiz-adv-x="1034" d="M80 0h852v168h-647q4 90 40.5 169t94 137t126 111.5t136.5 108t124 112.5t91 138t35 172q0 178 -105.5 273.5t-283.5 95.5q-248 0 -439 -144l95 -141q147 109 329 109q102 0 159.5 -51.5t57.5 -147.5q0 -74 -34.5 -137.5t-91 -112.5t-125 -99t-138 -110.5t-128 -133.5 t-98.5 -181.5t-46 -239.5z" />
<glyph unicode="3" horiz-adv-x="1026" d="M8 223q151 -243 477 -243q203 0 331 114.5t128 327.5q0 147 -71.5 252.5t-202.5 144.5q117 41 175 127t58 195q0 164 -108.5 255t-284.5 91q-127 0 -241.5 -44t-184.5 -110l102 -129q131 104 314 105q100 0 158.5 -47.5t58.5 -139.5q0 -117 -80 -176t-264 -59v-162 q385 -12 385 -297q0 -131 -71 -203.5t-204 -72.5q-115 0 -192.5 37.5t-143.5 134.5z" />
<glyph unicode="4" horiz-adv-x="1124" d="M68 326h606v-326h182v326h213v168h-213v323h-129l-49 -323h-397l540 972h-198l-555 -997v-143z" />
<glyph unicode="5" horiz-adv-x="1067" d="M39 223q153 -243 479 -243q209 0 336 131t127 387q0 215 -104.5 345t-286.5 130q-170 0 -266 -90l34 411h502v172h-655l-55 -653l147 -70q131 68 240 68q115 0 186.5 -80t71.5 -237q0 -342 -283 -342q-111 0 -188.5 37.5t-143.5 134.5z" />
<glyph unicode="6" horiz-adv-x="1140" d="M119 664q0 -209 32.5 -339t116.5 -219q115 -124 328 -124q211 0 331 130t120 396q0 494 -385 493q-252 0 -353 -194q14 266 127 383t379 117q31 0 45 -2l10 174q-33 4 -51 4q-369 0 -534.5 -193.5t-165.5 -625.5zM307 514q0 170 93.5 248t212 78t183 -75t64.5 -259 q0 -354 -254 -354q-147 0 -223 97t-76 265z" />
<glyph unicode="7" horiz-adv-x="911" d="M49 1294h647q-154 -174 -288 -501q-139 -351 -170 -793h196q27 434 156 783.5t299 533.5v149h-840v-172z" />
<glyph unicode="8" horiz-adv-x="1126" d="M98 414q0 -207 118 -328t347 -121q227 0 345 121t118 328q0 295 -238 393q178 88 179 317q0 174 -100.5 272.5t-303.5 98.5q-205 0 -305 -98.5t-100 -272.5q0 -225 178 -317q-238 -100 -238 -393zM287 420q0 139 69.5 223t206.5 84q135 0 205 -84t70 -223 q0 -137 -69 -214t-206 -77t-206.5 77t-69.5 214zM344 1112q0 219 219 219q217 0 217 -219q0 -111 -54 -173t-163 -62q-219 0 -219 235z" />
<glyph unicode="9" horiz-adv-x="1140" d="M92 956q0 -498 385 -497q250 0 354 194q-16 -266 -128.5 -382.5t-378.5 -116.5q-29 0 -45 2l-11 -170q16 -2 51 -2q373 0 538 192.5t165 626.5q0 207 -33 337t-117 218q-121 127 -327 127q-213 0 -333 -131t-120 -398zM279 954q0 354 256 355q147 0 221.5 -96.5 t74.5 -266.5t-92 -247.5t-209 -77.5q-121 0 -186 74.5t-65 258.5z" />
<glyph unicode=":" horiz-adv-x="487" d="M129 0h229v248h-229v-248zM129 889h229v246h-229v-246z" />
<glyph unicode=";" horiz-adv-x="487" d="M123 -162l59 -92q104 59 140 126t36 194v184h-229v-250h109q0 -55 -24 -87t-91 -75zM129 889h229v246h-229v-246z" />
<glyph unicode="&#x3c;" horiz-adv-x="1204" d="M219 627l739 -406v189l-567 301l567 299v186l-739 -403v-166z" />
<glyph unicode="=" horiz-adv-x="1206" d="M186 412h834v172h-834v-172zM186 834h834v172h-834v-172z" />
<glyph unicode="&#x3e;" horiz-adv-x="1204" d="M246 221l739 404v166l-739 405v-188l565 -301l-565 -299v-187z" />
<glyph unicode="?" horiz-adv-x="1157" d="M139 1376l105 -137q154 121 342 121q240 0 239 -193q0 -57 -23.5 -105t-61.5 -83t-83 -71t-88 -79t-75.5 -95t-47 -132t-4.5 -180h183q-16 94 6 170t65 123t98.5 97t104.5 94t82 115t33 157q0 174 -106.5 267t-311.5 93q-264 0 -457 -162zM422 0h229v242h-229v-242z" />
<glyph unicode="@" horiz-adv-x="1832" d="M145 594q0 -266 59.5 -453.5t171 -290t250 -146.5t318.5 -44q322 0 541 174l-80 100q-186 -141 -461 -141q-152 0 -266.5 39t-205.5 128t-139 248t-48 386q0 221 52 384t145 256t210 136t260 43q598 0 598 -661q0 -268 -45 -392t-162 -124q-143 0 -114 159l125 719 l-113 14l-76 -147q-66 168 -260 168q-150 0 -249 -101.5t-139 -251t-40 -339.5q0 -362 289 -363q92 0 175 50.5t132 146.5q4 -84 61.5 -134.5t172.5 -50.5q217 0 298 147.5t81 498.5q0 795 -734 794q-170 0 -309 -50t-254 -156.5t-179.5 -297t-64.5 -448.5zM649 459 q0 96 12.5 182t41 168t84 130t133.5 48q197 0 196 -219q0 -205 -77.5 -361.5t-227.5 -156.5q-162 0 -162 209z" />
<glyph unicode="A" horiz-adv-x="1234" d="M43 0h190l99 319h563l98 -319h199l-481 1528h-189zM385 492l229 743l228 -743h-457z" />
<glyph unicode="B" horiz-adv-x="1140" d="M143 0h441q489 0 489 432q0 303 -254 373q213 76 213 334q0 379 -432 379h-457v-1518zM334 168v537h260q147 0 217 -61.5t70 -205.5q0 -150 -68 -210t-217 -60h-262zM334 870v476h256q131 0 190.5 -55.5t59.5 -176.5q0 -244 -248 -244h-258z" />
<glyph unicode="C" horiz-adv-x="1193" d="M76 754q0 -772 561 -772q197 0 328 90t192 231l-164 74q-100 -215 -350 -215q-188 0 -280.5 140t-92.5 452q0 600 381 600q225 0 324 -158l155 107q-151 235 -474 235h-3q-270 0 -423.5 -193.5t-153.5 -590.5z" />
<glyph unicode="D" horiz-adv-x="1251" d="M143 0h412q330 0 476.5 179t146.5 581q0 399 -146.5 578.5t-476.5 179.5h-412v-1518zM336 174v1161h223q225 0 324.5 -126t99.5 -453q0 -326 -99.5 -454t-324.5 -128h-223z" />
<glyph unicode="E" horiz-adv-x="1046" d="M143 0h809v176h-616v502h549v176h-549v481h608v183h-801v-1518z" />
<glyph unicode="F" horiz-adv-x="1001" d="M143 0h193v637h559v174h-559v524h602v183h-795v-1518z" />
<glyph unicode="G" horiz-adv-x="1286" d="M76 754q0 -399 141 -584.5t383 -185.5q311 0 412 237l37 -229l120 14v750h-493v-166h321q-4 -94 -18 -161t-50 -133.5t-108.5 -100t-179.5 -33.5q-186 0 -278.5 140t-92.5 452q0 600 381 600q225 0 328 -162l154 102q-72 117 -196 180.5t-284 63.5q-270 0 -423.5 -193.5 t-153.5 -590.5z" />
<glyph unicode="H" horiz-adv-x="1327" d="M143 0h193v686h655v-686h193v1518h-193v-648h-655v648h-193v-1518z" />
<glyph unicode="I" horiz-adv-x="518" d="M164 0h192v1518h-192v-1518z" />
<glyph unicode="J" horiz-adv-x="815" d="M18 45q131 -61 295 -61q182 0 275.5 95t93.5 302v1137h-193v-1129q0 -121 -43 -173t-147 -52q-106 0 -215 45z" />
<glyph unicode="K" horiz-adv-x="1212" d="M143 0h191v424l223 321l397 -745h209l-483 911l424 607h-209l-561 -818v818h-191v-1518z" />
<glyph unicode="L" horiz-adv-x="972" d="M143 0h789v174h-596v1344h-193v-1518z" />
<glyph unicode="M" horiz-adv-x="1579" d="M143 0h176v1204l390 -1204h151l389 1204v-1204h187v1518h-252l-396 -1205l-393 1205h-252v-1518z" />
<glyph unicode="N" horiz-adv-x="1320" d="M143 0h183v1223l684 -1223h168v1518h-183v-1127l-626 1127h-226v-1518z" />
<glyph unicode="O" horiz-adv-x="1363" d="M76 760q0 -385 155.5 -581.5t448.5 -196.5t449.5 196.5t156.5 581.5t-156.5 581.5t-449.5 196.5t-448.5 -196.5t-155.5 -581.5zM270 756q0 598 410 598q412 0 412 -598q0 -596 -412 -596q-410 0 -410 596z" />
<glyph unicode="P" horiz-adv-x="1165" d="M143 0h191v508h280q231 0 359.5 115.5t128.5 384.5q0 510 -488 510h-471v-1518zM334 684v653h278q145 0 221 -76.5t76 -256.5q0 -178 -74.5 -249t-222.5 -71h-278z" />
<glyph unicode="Q" horiz-adv-x="1363" d="M76 760q0 -659 452 -756v-18q0 -167 69 -250q73 -88 239 -88q156 0 311 57l-49 162q-119 -41 -240 -41q-84 0 -116.5 39t-36.5 131q283 8 432 199.5t149 564.5q0 385 -156.5 581.5t-449.5 196.5t-448.5 -196.5t-155.5 -581.5zM270 756q0 598 410 598q412 0 412 -598 q0 -594 -412 -594q-410 0 -410 594z" />
<glyph unicode="R" horiz-adv-x="1181" d="M143 0h191v551h258l266 -551h207l-279 573q303 80 304 453q0 250 -129.5 371t-358.5 121h-459v-1518zM334 725v612h268q295 0 295 -315q0 -162 -74.5 -229.5t-220.5 -67.5h-268z" />
<glyph unicode="S" horiz-adv-x="1132" d="M55 154q199 -174 508 -174q227 0 351 114.5t124 311.5q0 154 -74.5 250t-180 138t-211 75.5t-180.5 94t-75 162.5q0 229 250 230q190 0 322 -88l100 151q-160 121 -426 121q-203 0 -319.5 -111.5t-116.5 -304.5q0 -129 53 -216t133 -127t174.5 -75.5t174 -63.5t133 -88 t53.5 -151q0 -117 -73 -181t-214 -64q-225 0 -391 137z" />
<glyph unicode="T" horiz-adv-x="1116" d="M39 1335h422v-1335h192v1335h422v183h-1036v-183z" />
<glyph unicode="U" horiz-adv-x="1312" d="M133 516q0 -113 26.5 -206t85 -170t163 -120t245.5 -43q274 0 400.5 151t126.5 388v1002h-191v-994q0 -172 -74.5 -268t-255.5 -96q-332 0 -331 364v994h-195v-1002z" />
<glyph unicode="V" horiz-adv-x="1234" d="M43 1518l479 -1528h189l479 1528h-195l-374 -1233l-377 1233h-201z" />
<glyph unicode="W" horiz-adv-x="1806" d="M47 1518l402 -1528h169l287 1165l285 -1165h170l399 1528h-180l-303 -1201l-289 1201h-158l-288 -1201l-301 1201h-193z" />
<glyph unicode="X" horiz-adv-x="1222" d="M59 0h201l338 635l358 -635h205l-444 791l403 727h-200l-297 -560l-314 560h-207l402 -717z" />
<glyph unicode="Y" horiz-adv-x="1210" d="M33 1518l475 -959v-559h194v559l476 959h-197l-373 -758l-370 758h-205z" />
<glyph unicode="Z" horiz-adv-x="1091" d="M70 0h946v176h-721l700 1192v150h-897v-183h668l-696 -1179v-156z" />
<glyph unicode="[" horiz-adv-x="835" d="M205 -338h471v160h-281v1601h275v166h-465v-1927z" />
<glyph unicode="\" horiz-adv-x="897" d="M0 1518l709 -1518h188l-711 1518h-186z" />
<glyph unicode="]" horiz-adv-x="835" d="M162 -176v-162h469v1927h-467v-166h276v-1599h-278z" />
<glyph unicode="^" horiz-adv-x="1009" d="M176 1327l53 -104l277 120l274 -120l56 104l-283 180h-98z" />
<glyph unicode="_" horiz-adv-x="776" d="M-63 -113v-159h903v159h-903z" />
<glyph unicode="`" horiz-adv-x="1009" d="M246 1393l475 -156l45 119l-463 196z" />
<glyph unicode="a" horiz-adv-x="1042" d="M66 305q0 -143 79.5 -231t225.5 -88q260 0 342 200l8 -63q6 -72 38 -102.5t97.5 -30.5t144.5 28v127h-116v580q0 236 -77 334t-265 98q-219 0 -373 -94l80 -152q123 72 266 72q113 0 148.5 -66.5t35.5 -209.5v-56q-78 14 -168 15q-209 0 -337.5 -91.5t-128.5 -269.5z M248 319q0 203 327 203q53 0 125 -10v-102q0 -115 -68.5 -186.5t-215.5 -71.5q-168 0 -168 167z" />
<glyph unicode="b" horiz-adv-x="1116" d="M123 6l137 -16l39 184q45 -86 134 -137t208 -51q205 0 301 146.5t96 438.5q0 586 -381 586q-246 0 -350 -209v627h-184v-1569zM309 567q0 201 78 308.5t219 107.5q131 0 188.5 -101.5t57.5 -314.5q0 -217 -56.5 -315t-191.5 -98q-295 0 -295 413z" />
<glyph unicode="c" horiz-adv-x="974" d="M78 571q0 -587 440 -587q139 0 249 71.5t169 192.5l-150 78q-86 -170 -262 -170q-139 0 -199.5 99t-60.5 314q0 211 61.5 312.5t198.5 101.5q158 0 238 -137l151 88q-121 223 -391 223q-444 0 -444 -586z" />
<glyph unicode="d" horiz-adv-x="1116" d="M80 573q0 -587 379 -587q127 0 221 59t141 162l35 -205l137 12v1561h-184v-602q-102 184 -332 184q-397 0 -397 -584zM266 571q0 215 56.5 313.5t189.5 98.5q297 0 297 -412q0 -201 -79 -309t-220 -108q-131 0 -187.5 101t-56.5 316z" />
<glyph unicode="e" horiz-adv-x="1011" d="M78 571q0 -589 435 -589h1q281 0 428 227l-135 102q-105 -159 -283 -159h-2q-133 0 -194.5 89.5t-67.5 284.5h649q2 51 2 96q0 57 -3 105q-5 86 -28.5 171t-64.5 139.5t-112.5 87t-170.5 32.5q-455 0 -454 -586zM264 684q16 154 79 228.5t181 74.5q205 0 205 -303h-465z " />
<glyph unicode="f" horiz-adv-x="718" d="M43 967h184v-967h185v967h284v168h-284v149q0 72 33.5 106.5t111.5 34.5q84 0 152 -10l30 164q-74 18 -188 18q-324 0 -324 -311v-151h-184v-168z" />
<glyph unicode="g" horiz-adv-x="1046" d="M35 -82q0 -125 102.5 -194.5t298.5 -69.5q293 0 437.5 97t144.5 255q0 150 -113.5 208t-363.5 71q-133 8 -171 22.5t-38 57.5q0 33 26 63q72 -16 144 -16q186 0 295.5 92t109.5 272q0 213 -153 293h198l-30 174l-267 -104q-74 18 -153 18q-184 0 -293 -96t-109 -281 q0 -211 148 -305q-76 -66 -76 -151q0 -106 98 -144q-111 -23 -173 -92.5t-62 -169.5zM219 -43q0 88 77 136q71 44 169 44h16q201 -4 275.5 -35.5t74.5 -113.5q0 -187 -385 -187q-227 0 -227 156zM281 778q0 219 221 219q223 0 223 -219q0 -217 -223 -217q-221 0 -221 217z " />
<glyph unicode="h" d="M123 0h186v688q0 295 269 295q117 0 157.5 -65.5t40.5 -215.5v-702h185v743q0 213 -72 313.5t-252 100.5q-244 0 -330 -178v596h-184v-1575z" />
<glyph unicode="i" horiz-adv-x="450" d="M131 1270h191v229h-191v-229zM133 0h186v1135h-186v-1135z" />
<glyph unicode="j" horiz-adv-x="452" d="M-88 -328q57 -14 135 -14q147 0 209.5 61.5t62.5 223.5v1192h-186v-1190q0 -74 -17.5 -98.5t-72.5 -24.5q-57 0 -104 12zM131 1270h193v229h-193v-229z" />
<glyph unicode="k" horiz-adv-x="962" d="M123 0h182v313l141 205l291 -518h199l-373 672l318 463h-197l-379 -555v999h-182v-1579z" />
<glyph unicode="l" horiz-adv-x="450" d="M133 0h186v1575h-186v-1575z" />
<glyph unicode="m" horiz-adv-x="1691" d="M123 0h186v688q0 147 60.5 221t195.5 74q115 0 154 -65.5t39 -215.5v-702h184v688q0 147 60.5 221t195.5 74q115 0 153 -64.5t38 -216.5v-702h184v743q0 217 -67.5 315.5t-245.5 98.5q-129 0 -220.5 -57.5t-126.5 -157.5q-12 47 -27.5 78t-46 66.5t-84 53t-128.5 17.5 q-258 0 -336 -203l-29 185l-139 -15v-1124z" />
<glyph unicode="n" d="M123 0h186v688q0 295 269 295q117 0 157.5 -65.5t40.5 -215.5v-702h185v743q0 213 -72 313.5t-252 100.5q-121 0 -214 -51t-132 -152l-29 185l-139 -15v-1124z" />
<glyph unicode="o" d="M78 569q0 -297 120.5 -442t342 -145t342.5 145t121 442q0 299 -121 444.5t-342.5 145.5t-342 -145.5t-120.5 -444.5zM264 567q0 416 277 416q141 0 208.5 -102.5t67.5 -313.5t-67.5 -312t-209 -101t-209 101t-67.5 312z" />
<glyph unicode="p" horiz-adv-x="1116" d="M123 -324h186v492q102 -182 332 -182q205 0 301 146.5t96 438.5q0 586 -381 586q-125 0 -220 -60.5t-142 -160.5l-33 203l-139 -15v-1448zM309 567q0 201 78 308.5t219 107.5q131 0 188.5 -101.5t57.5 -314.5q0 -217 -56.5 -315t-191.5 -98q-295 0 -295 413z" />
<glyph unicode="q" horiz-adv-x="1116" d="M80 573q0 -587 378 -587h1q250 0 350 202v-512h184v1448l-133 15l-45 -168q-106 186 -338 186q-397 0 -397 -584zM266 571q0 215 56.5 313.5t189.5 98.5q297 0 297 -412q0 -201 -79 -309t-220 -108q-131 0 -187.5 101t-56.5 316z" />
<glyph unicode="r" horiz-adv-x="698" d="M123 0h186v657q0 147 75 223t263 93l-33 184q-227 -27 -319 -223l-33 205l-139 -15v-1124z" />
<glyph unicode="s" horiz-adv-x="913" d="M45 123q154 -141 408 -141q178 0 286.5 85t108.5 248q0 100 -42 170t-103.5 101.5t-135 58.5t-135 45.5t-103.5 55t-42 92.5q0 151 174 151h2q141 0 254 -76l92 150q-145 100 -350 100q-160 0 -259.5 -82t-99.5 -241q0 -96 42 -164t104.5 -98.5t135.5 -57t135.5 -46 t104.5 -59.5t42 -102q0 -161 -206 -161h-3q-182 0 -301 106z" />
<glyph unicode="t" horiz-adv-x="788" d="M35 967h180v-697q0 -147 57.5 -215.5t200.5 -68.5q135 0 279 67l-66 154q-102 -45 -186 -45q-61 0 -81 31.5t-20 103.5v670h289v168h-289v344l-145 -43l-33 -301h-186v-168z" />
<glyph unicode="u" horiz-adv-x="1073" d="M117 395q0 -213 71.5 -312t253.5 -99q121 0 212 50t130 148l31 -190l135 14v1129h-184v-691q0 -145 -63.5 -218.5t-200.5 -73.5q-117 0 -158 65.5t-41 212.5v705h-186v-740z" />
<glyph unicode="v" horiz-adv-x="948" d="M20 1135l355 -1147h196l355 1147h-181l-268 -891l-266 891h-191z" />
<glyph unicode="w" horiz-adv-x="1486" d="M31 1135l329 -1147h166l217 821l218 -821h165l330 1147h-178l-231 -840l-222 840h-157l-219 -840l-232 840h-186z" />
<glyph unicode="x" horiz-adv-x="983" d="M49 0h184l248 434l256 -434h197l-342 580l326 555h-187l-229 -402l-238 402h-196l323 -551z" />
<glyph unicode="y" horiz-adv-x="925" d="M20 1135l357 -1139q-33 -100 -67 -135t-91 -35q-76 0 -164 18l-28 -163q106 -23 209 -23q117 0 183 64.5t107 193.5l383 1219h-184l-258 -869l-258 869h-189z" />
<glyph unicode="z" horiz-adv-x="854" d="M49 0h758v164h-543l524 842v129h-710v-168h487l-516 -826v-141z" />
<glyph unicode="{" horiz-adv-x="899" d="M135 545q133 0 178 -20.5t39 -94.5q-2 -41 -44 -217t-46 -231q-12 -162 70.5 -241t232.5 -79h176v164h-139q-72 0 -114 39t-35 127q4 51 45 225t45 221q14 139 -129 189q143 45 129 186q-4 47 -45 221t-45 226q-12 164 151 163h137v166h-176q-145 0 -230 -78.5 t-73 -240.5q4 -55 46 -231.5t44 -217.5q6 -74 -39 -94t-178 -20v-162z" />
<glyph unicode="|" horiz-adv-x="595" d="M205 -338h188v1927h-188v-1927z" />
<glyph unicode="}" horiz-adv-x="899" d="M160 -174v-164h176q147 0 230 78t71 242q-4 55 -45 231t-43 217q-6 74 38 94.5t179 20.5v162q-133 0 -178 20.5t-39 93.5q2 41 43 217t45 232q12 162 -72 240.5t-229 78.5h-176v-166h139q158 0 145 -163q-4 -53 -44 -228.5t-44 -218.5q-10 -141 131 -186 q-141 -49 -131 -189q4 -43 44 -218t44 -228q12 -166 -147 -166h-137z" />
<glyph unicode="~" horiz-adv-x="1009" d="M150 907l126 -67q27 49 49.5 69.5t57.5 20.5t117 -42t141 -42q129 0 219 180l-129 68q-55 -92 -104 -93q-29 0 -111 43t-145 43q-131 0 -221 -180z" />
<glyph unicode="&#xa1;" horiz-adv-x="653" d="M213 1268h227v250h-227v-250zM217 0h217l-31 1090h-151z" />
<glyph unicode="&#xa2;" horiz-adv-x="974" d="M78 571q0 -532 362 -581v-183h158v185q111 18 197 82.5t135 161.5l-144 90q-68 -133 -194 -166v819q106 -25 170 -133l143 102q-104 176 -307 205v162h-158v-164q-362 -49 -362 -580zM264 569q0 353 180 406v-813q-94 27 -137 126t-43 281z" />
<glyph unicode="&#xa3;" horiz-adv-x="1120" d="M57 662h209q55 -176 56 -269q0 -102 -49.5 -152.5t-211.5 -86.5l39 -168q178 37 271 110q156 -106 346 -106q303 0 303 303q0 66 -27 168l-168 -37q20 -78 21 -125q0 -139 -137 -139q-121 0 -238 69q29 66 29 162q0 88 -54 271h308v155h-355q-45 172 -45 279 q0 102 57.5 157.5t155.5 55.5q154 0 262 -92l109 141q-129 127 -373 127q-178 0 -286.5 -99.5t-108.5 -279.5q0 -111 49 -289h-162v-155z" />
<glyph unicode="&#xa4;" horiz-adv-x="1218" d="M63 506h201q68 -524 459 -524q303 0 438 323l-155 64q-43 -106 -104.5 -160.5t-174.5 -54.5q-123 0 -190.5 86t-90.5 266h461v156h-471v133h471v155h-458q23 184 92 271.5t194 87.5q172 0 256 -160l150 82q-125 252 -404 252q-406 0 -473 -533h-201v-155h189v-133h-189 v-156z" />
<glyph unicode="&#xa5;" horiz-adv-x="1099" d="M35 1464l422 -827v-45h-297v-154h297v-133h-297v-155h297v-150h184v150h295v155h-295v133h295v154h-295v43l424 829h-197l-317 -653l-318 653h-198z" />
<glyph unicode="&#xa6;" horiz-adv-x="595" d="M205 -338h188v803h-188v-803zM205 786h188v803h-188v-803z" />
<glyph unicode="&#xa7;" horiz-adv-x="1697" d="M96 1278q94 0 144 14v-766h166v940h-113q-55 -35 -197 -34v-154zM328 0h168l708 1466h-168zM1001 0h572v150h-391q8 63 51 119.5t99.5 99.5t111.5 89t93 109.5t38 139.5q0 121 -70.5 183t-189.5 62q-172 0 -303 -106l84 -121q98 74 202 74q113 0 113 -103q0 -57 -40 -105 t-98.5 -90t-117.5 -92.5t-103 -135.5t-48 -195z" />
<glyph unicode="&#xa8;" horiz-adv-x="1009" d="M240 1276h174v223h-174v-223zM596 1276h174v223h-174v-223z" />
<glyph unicode="&#xa9;" horiz-adv-x="1415" d="M76 760q0 -373 178.5 -576.5t452.5 -203.5q272 0 450 203.5t178 576.5t-178 576.5t-450 203.5q-274 0 -452.5 -203.5t-178.5 -576.5zM180 759.5q0 323.5 147.5 502t379 178.5t379 -178.5t147.5 -502t-147.5 -501.5t-379 -178t-379 178t-147.5 501.5zM338 758 q0 -506 369 -506q248 0 348 223l-125 53q-59 -141 -221 -141q-117 0 -173.5 88t-56.5 283q0 377 238 377q137 0 207 -107l108 80q-106 162 -315 162q-176 0 -277.5 -126t-101.5 -386z" />
<glyph unicode="&#xaa;" horiz-adv-x="1916" d="M96 532h576v152h-389q10 57 55 112.5t100.5 101.5t108.5 94t89 111.5t36 135.5q0 121 -71 183.5t-189 62.5q-182 0 -306 -135l97 -111q84 90 192 90q115 0 115 -100q0 -53 -39 -104.5t-95.5 -97.5t-113.5 -99.5t-103 -135t-55 -180.5zM530 0h168l709 1466h-166zM1198 197 q87 -211 320 -211q135 0 218 76.5t83 220.5q0 178 -156 239q123 59 123 197q0 113 -69.5 173t-188.5 60q-193 0 -295 -143l102 -98q74 88 181 88q113 0 112 -99q0 -66 -43 -95.5t-164 -29.5v-126q127 0 182.5 -39t55.5 -119q0 -156 -152 -156q-129 0 -184 129z" />
<glyph unicode="&#xab;" horiz-adv-x="1191" d="M147 567l259 -567h161l-231 567l231 568h-161zM573 567l261 -567h159l-231 567l231 568h-159z" />
<glyph unicode="&#xac;" horiz-adv-x="612" d="M162 176q0 -102 43 -144t133 -42q109 0 197 26v134h-181v1439h-192v-1413z" />
<glyph unicode="&#xad;" horiz-adv-x="761" d="M84 555h594v172h-594v-172z" />
<glyph unicode="&#xae;" horiz-adv-x="1118" d="M119 944q0 -289 117.5 -442.5t322.5 -153.5t322.5 153.5t117.5 442.5q0 291 -116.5 443.5t-323.5 152.5q-205 0 -322.5 -152.5t-117.5 -443.5zM205 944q0 246 93 377t261 131t261 -131t93 -377t-93 -376t-261 -130t-261 130t-93 376zM356 578h107v268h82l119 -268h118 l-123 280q125 43 125 219q0 123 -57 182.5t-156 59.5h-215v-741zM463 954v254h108q104 0 105 -133q0 -121 -105 -121h-108z" />
<glyph unicode="&#xaf;" horiz-adv-x="1009" d="M184 1253h643v158h-643v-158z" />
<glyph unicode="&#xb0;" horiz-adv-x="995" d="M104 1001q0 -236 103.5 -358.5t290 -122.5t290 123t103.5 358q0 233 -103.5 358.5t-290 125.5t-290 -125t-103.5 -359zM270 999q0 326 228 326q229 0 229 -326q0 -323 -229 -323q-227 0 -228 323z" />
<glyph unicode="&#xb1;" horiz-adv-x="1673" d="M59 1319h383q-92 -115 -159 -283q-86 -199 -109 -516h164q18 281 97 499t183 329l3 118h-562v-147zM319 0h170l709 1466h-168zM991 283q0 -135 77 -216t226.5 -81t226 80.5t76.5 216.5q0 176 -127 241q90 61 91 195q0 115 -67 181.5t-200 66.5t-200.5 -66.5t-67.5 -181.5 q0 -127 92 -195q-127 -68 -127 -241zM1143 289q0 78 38 125t113 47q74 0 112 -47t38 -125q0 -162 -150 -162q-152 0 -151 162zM1176 709q0 117 118 116q117 0 117 -116q0 -129 -117 -129q-119 0 -118 129z" />
<glyph unicode="&#xb2;" horiz-adv-x="790" d="M98 584h576v151h-387q10 59 54 114.5t98.5 101.5t107.5 94.5t89 111t36 133.5q0 121 -70 183.5t-188 62.5q-182 0 -305 -133l96 -111q84 90 192 90q115 0 115 -102q0 -53 -39 -104.5t-95 -97.5t-113.5 -98t-103.5 -134t-55 -180z" />
<glyph unicode="&#xb3;" horiz-adv-x="790" d="M76 782q90 -211 319 -211q135 0 218 77t83 220q0 178 -155 240q123 59 123 197q0 111 -70 171t-186 60q-190 0 -297 -141l102 -99q74 88 180 88q113 0 113 -98q0 -66 -42 -94.5t-165 -28.5v-131q127 0 182.5 -39t55.5 -116q0 -156 -152 -156q-129 0 -184 129z" />
<glyph unicode="&#xb4;" horiz-adv-x="1009" d="M246 1356l43 -119l477 156l-59 159z" />
<glyph unicode="&#xb6;" horiz-adv-x="1112" d="M94 995q0 -213 84 -320.5t244 -135.5v-539h180v526h182v-526h181v1466h-404q-221 0 -344 -106.5t-123 -364.5zM283 989q0 168 65.5 238.5t222.5 70.5h213v-616h-227q-145 0 -209.5 71.5t-64.5 235.5z" />
<glyph unicode="&#xb7;" horiz-adv-x="454" d="M113 598h229v252h-229v-252z" />
<glyph unicode="&#xb8;" horiz-adv-x="1009" d="M281 -387q84 -64 215 -64q123 0 189.5 53.5t66.5 147.5q0 102 -67 144.5t-148 17.5l16 102h-129l-27 -147l66 -37q74 6 108.5 -9.5t34.5 -64.5q0 -80 -112 -80q-82 0 -142 43z" />
<glyph unicode="&#xb9;" horiz-adv-x="581" d="M96 1331q94 0 144 12v-765h166v940h-113q-55 -33 -197 -33v-154z" />
<glyph unicode="&#xba;" horiz-adv-x="1013" d="M129 1007.5q0 -241.5 98.5 -359.5t278.5 -118t279.5 118t99.5 359.5t-99.5 359.5t-279.5 118t-278.5 -118t-98.5 -359.5zM158 238h696v155h-696v-155zM291 1006q0 328 215 327q217 0 217 -327q0 -324 -217 -324q-111 0 -163 80t-52 244z" />
<glyph unicode="&#xbb;" horiz-adv-x="1591" d="M96 1278q94 0 144 14v-766h166v940h-113q-55 -35 -197 -34v-154zM328 0h168l708 1466h-166zM887 195h375v-195h153v195h131v145h-131v195h-112l-35 -195h-195l334 600h-172l-348 -627v-118z" />
<glyph unicode="&#xbc;" horiz-adv-x="1591" d="M96 1278q94 0 144 14v-766h166v940h-113q-55 -35 -197 -34v-154zM328 0h168l708 1466h-166zM887 195h375v-195h153v195h131v145h-131v195h-112l-35 -195h-195l334 600h-172l-348 -627v-118z" />
<glyph unicode="&#xbd;" horiz-adv-x="1697" d="M96 1278q94 0 144 14v-766h166v940h-113q-55 -35 -197 -34v-154zM328 0h168l708 1466h-168zM999 0h576v150h-389q10 59 55 114t100.5 101.5t108.5 94.5t89 111.5t36 135.5q0 121 -70.5 183t-189.5 62q-182 0 -305 -135l98 -110q84 90 190 90q115 0 115 -101 q0 -55 -39 -105t-95 -97.5t-113.5 -99.5t-103.5 -134t-54 -180z" />
<glyph unicode="&#xbe;" horiz-adv-x="1765" d="M78 729q88 -209 321 -209q135 0 218 76t83 219q0 178 -155 242q123 59 123 196q0 109 -70 170.5t-188 61.5q-195 0 -295 -142l100 -98q74 88 180 88q113 0 113 -98q0 -66 -42 -95.5t-163 -29.5v-129q127 0 182.5 -39t55.5 -119q0 -154 -152 -153q-131 0 -186 127zM504 0 h166l710 1466h-168zM1061 195h375v-195h155v195h129v145h-129v195h-114l-35 -195h-195l332 600h-170l-348 -627v-118z" />
<glyph unicode="&#xbf;" horiz-adv-x="1157" d="M145 340q0 -174 106.5 -267t311.5 -93q264 0 457 161l-107 138q-66 -53 -158.5 -87t-181.5 -34q-125 0 -182 47t-57 145q0 78 45 139.5t105.5 108.5t120 104.5t93 158t17.5 235.5h-183q16 -94 -5 -170t-65 -123t-98.5 -97.5t-103.5 -94.5t-82 -114.5t-33 -156.5z M506 1276h231v242h-231v-242z" />
<glyph unicode="&#xc0;" horiz-adv-x="1234" d="M43 0h190l99 319h563l98 -319h199l-481 1528h-189zM324 1751l475 -156l45 119l-463 196zM385 492l229 743l228 -743h-457z" />
<glyph unicode="&#xc1;" horiz-adv-x="1234" d="M43 0h190l99 319h563l98 -319h199l-481 1528h-189zM385 492l229 743l228 -743h-457zM391 1714l43 -119l477 156l-59 159z" />
<glyph unicode="&#xc2;" horiz-adv-x="1234" d="M43 0h190l99 319h563l98 -319h199l-481 1528h-189zM287 1716l53 -105l277 121l274 -121l56 105l-283 180h-98zM385 492l229 743l228 -743h-457z" />
<glyph unicode="&#xc3;" horiz-adv-x="1234" d="M43 0h190l99 319h563l98 -319h199l-481 1528h-189zM261 1683l126 -68q27 49 49.5 70t57.5 21t117 -42t141 -42q129 0 219 180l-129 67q-55 -92 -104 -92q-29 0 -111 43t-145 43q-131 0 -221 -180zM385 492l229 743l228 -743h-457z" />
<glyph unicode="&#xc4;" horiz-adv-x="1234" d="M43 0h190l99 319h563l98 -319h199l-481 1528h-189zM351 1634h174v223h-174v-223zM385 492l229 743l228 -743h-457zM707 1634h174v223h-174v-223z" />
<glyph unicode="&#xc5;" horiz-adv-x="1234" d="M43 0h190l99 319h563l98 -319h199l-457 1450q111 70 111 231q0 119 -64.5 192t-167.5 73q-104 0 -167.5 -73t-63.5 -192q0 -166 115 -235zM385 492l229 743l228 -743h-457zM504 1681q0 68 29.5 107t81 39t81 -39t29.5 -107q0 -70 -29.5 -107.5t-81 -37.5t-81 38 t-29.5 107z" />
<glyph unicode="&#xc6;" horiz-adv-x="1812" d="M18 0h201l172 338h522v-338h805v176h-616v504h549v172h-549v483h610v183h-899zM477 506l436 842v-842h-436z" />
<glyph unicode="&#xc7;" horiz-adv-x="1193" d="M76 754q0 -680 434 -760l-23 -127l66 -37q74 6 108.5 -9.5t34.5 -64.5q0 -80 -112 -80q-82 0 -142 43l-71 -106q84 -63 215 -64q123 0 189.5 53.5t66.5 147.5q0 102 -66.5 144.5t-148.5 17.5l10 70q197 0 328 90t192 231l-164 74q-100 -215 -350 -215q-188 0 -280.5 140 t-92.5 452q0 600 381 600q225 0 324 -158l155 107q-152 236 -477 235q-270 0 -423.5 -193.5t-153.5 -590.5z" />
<glyph unicode="&#xc8;" horiz-adv-x="1046" d="M143 0h809v176h-616v502h549v176h-549v481h608v183h-801v-1518zM262 1751l475 -156l45 119l-463 196z" />
<glyph unicode="&#xc9;" horiz-adv-x="1046" d="M143 0h809v176h-616v502h549v176h-549v481h608v183h-801v-1518zM262 1714l43 -119l477 156l-59 159z" />
<glyph unicode="&#xca;" horiz-adv-x="1046" d="M143 0h809v176h-616v502h549v176h-549v481h608v183h-801v-1518zM203 1716l53 -105l277 121l274 -121l56 105l-283 180h-98z" />
<glyph unicode="&#xcb;" horiz-adv-x="1046" d="M143 0h809v176h-616v502h549v176h-549v481h608v183h-801v-1518zM267 1634h174v223h-174v-223zM623 1634h174v223h-174v-223z" />
<glyph unicode="&#xcc;" horiz-adv-x="518" d="M-37 1751l475 -156l45 119l-463 196zM164 0h192v1518h-192v-1518z" />
<glyph unicode="&#xcd;" horiz-adv-x="518" d="M33 1714l43 -119l477 156l-59 159zM164 0h192v1518h-192v-1518z" />
<glyph unicode="&#xce;" horiz-adv-x="518" d="M-72 1716l53 -105l277 121l274 -121l56 105l-283 180h-98zM164 0h192v1518h-192v-1518z" />
<glyph unicode="&#xcf;" horiz-adv-x="518" d="M-8 1634h174v223h-174v-223zM164 0h192v1518h-192v-1518zM348 1634h174v223h-174v-223z" />
<glyph unicode="&#xd0;" horiz-adv-x="1251" d="M0 698h143v-698h412q330 0 476.5 179t146.5 581q0 399 -146.5 578.5t-476.5 179.5h-412v-652h-143v-168zM336 174v524h258v168h-258v469h223q225 0 324.5 -126t99.5 -453q0 -326 -99.5 -454t-324.5 -128h-223z" />
<glyph unicode="&#xd1;" horiz-adv-x="1320" d="M143 0h183v1223l684 -1223h168v1518h-183v-1127l-626 1127h-226v-1518zM304 1683l126 -68q27 49 49.5 70t57.5 21t117 -42t141 -42q129 0 219 180l-129 67q-55 -92 -104 -92q-29 0 -111 43t-145 43q-131 0 -221 -180z" />
<glyph unicode="&#xd2;" horiz-adv-x="1363" d="M76 760q0 -385 155.5 -581.5t448.5 -196.5t449.5 196.5t156.5 581.5t-156.5 581.5t-449.5 196.5t-448.5 -196.5t-155.5 -581.5zM270 756q0 598 410 598q412 0 412 -598q0 -596 -412 -596q-410 0 -410 596zM420 1751l475 -156l45 119l-463 196z" />
<glyph unicode="&#xd3;" horiz-adv-x="1363" d="M76 760q0 -385 155.5 -581.5t448.5 -196.5t449.5 196.5t156.5 581.5t-156.5 581.5t-449.5 196.5t-448.5 -196.5t-155.5 -581.5zM270 756q0 598 410 598q412 0 412 -598q0 -596 -412 -596q-410 0 -410 596zM420 1714l43 -119l477 156l-59 159z" />
<glyph unicode="&#xd4;" horiz-adv-x="1363" d="M76 760q0 -385 155.5 -581.5t448.5 -196.5t449.5 196.5t156.5 581.5t-156.5 581.5t-449.5 196.5t-448.5 -196.5t-155.5 -581.5zM270 756q0 598 410 598q412 0 412 -598q0 -596 -412 -596q-410 0 -410 596zM350 1716l53 -105l277 121l274 -121l56 105l-283 180h-98z" />
<glyph unicode="&#xd5;" horiz-adv-x="1363" d="M76 760q0 -385 155.5 -581.5t448.5 -196.5t449.5 196.5t156.5 581.5t-156.5 581.5t-449.5 196.5t-448.5 -196.5t-155.5 -581.5zM270 756q0 598 410 598q412 0 412 -598q0 -596 -412 -596q-410 0 -410 596zM324 1683l126 -68q27 49 49.5 70t57.5 21t117 -42t141 -42 q129 0 219 180l-129 67q-55 -92 -104 -92q-29 0 -111 43t-145 43q-131 0 -221 -180z" />
<glyph unicode="&#xd6;" horiz-adv-x="1363" d="M76 760q0 -385 155.5 -581.5t448.5 -196.5t449.5 196.5t156.5 581.5t-156.5 581.5t-449.5 196.5t-448.5 -196.5t-155.5 -581.5zM270 756q0 598 410 598q412 0 412 -598q0 -596 -412 -596q-410 0 -410 596zM414 1634h174v223h-174v-223zM770 1634h174v223h-174v-223z" />
<glyph unicode="&#xd7;" horiz-adv-x="1204" d="M229 461l115 -119l258 258l258 -258l115 121l-256 258l256 256l-115 119l-258 -258l-256 258l-117 -119l258 -256z" />
<glyph unicode="&#xd8;" horiz-adv-x="1363" d="M76 760q0 -471 231 -660l-61 -143l143 -61l53 127q106 -41 238 -41q293 0 449.5 196.5t156.5 581.5q0 471 -233 659l61 144l-143 61l-56 -127q-100 41 -235 41q-293 0 -448.5 -196.5t-155.5 -581.5zM266 756q0 602 414 602q96 0 170 -31l-461 -1048q-123 150 -123 477z M506 188l463 1053q129 -150 129 -485q0 -600 -418 -600q-96 0 -174 32z" />
<glyph unicode="&#xd9;" horiz-adv-x="1312" d="M133 516q0 -113 26.5 -206t85 -170t163 -120t245.5 -43q274 0 400.5 151t126.5 388v1002h-191v-994q0 -172 -74.5 -268t-255.5 -96q-332 0 -331 364v994h-195v-1002zM396 1751l475 -156l45 119l-463 196z" />
<glyph unicode="&#xda;" horiz-adv-x="1312" d="M133 516q0 -113 26.5 -206t85 -170t163 -120t245.5 -43q274 0 400.5 151t126.5 388v1002h-191v-994q0 -172 -74.5 -268t-255.5 -96q-332 0 -331 364v994h-195v-1002zM396 1714l43 -119l477 156l-59 159z" />
<glyph unicode="&#xdb;" horiz-adv-x="1312" d="M133 516q0 -113 26.5 -206t85 -170t163 -120t245.5 -43q274 0 400.5 151t126.5 388v1002h-191v-994q0 -172 -74.5 -268t-255.5 -96q-332 0 -331 364v994h-195v-1002zM326 1716l53 -105l277 121l274 -121l56 105l-283 180h-98z" />
<glyph unicode="&#xdc;" horiz-adv-x="1312" d="M133 516q0 -113 26.5 -206t85 -170t163 -120t245.5 -43q274 0 400.5 151t126.5 388v1002h-191v-994q0 -172 -74.5 -268t-255.5 -96q-332 0 -331 364v994h-195v-1002zM390 1634h174v223h-174v-223zM746 1634h174v223h-174v-223z" />
<glyph unicode="&#xdd;" horiz-adv-x="1210" d="M33 1518l475 -959v-559h194v559l476 959h-197l-373 -758l-370 758h-205zM344 1714l43 -119l477 156l-59 159z" />
<glyph unicode="&#xde;" horiz-adv-x="1165" d="M143 0h191v295h297q471 0 471 483q0 260 -126 381t-345 121h-297v238h-191v-1518zM334 467v633h297q279 0 278 -324q0 -168 -72.5 -238.5t-205.5 -70.5h-297z" />
<glyph unicode="&#xdf;" horiz-adv-x="1714" d="M96 1278q94 0 144 14v-766h166v940h-113q-55 -35 -197 -34v-154zM328 0h168l708 1466h-168zM993 197q91 -211 322 -211q135 0 217 75.5t82 221.5q0 178 -154 239q121 57 121 197q0 113 -69.5 173t-188.5 60q-190 0 -293 -143l100 -98q74 88 181 88q113 0 112 -99 q0 -66 -42 -95.5t-162 -29.5v-126q127 0 182 -39t55 -119q0 -156 -153 -156q-129 0 -185 129z" />
<glyph unicode="&#xe0;" horiz-adv-x="1042" d="M66 305q0 -143 79.5 -231t225.5 -88q260 0 342 200l8 -63q6 -72 38 -102.5t97.5 -30.5t144.5 28v127h-116v580q0 236 -77 334t-265 98q-219 0 -373 -94l80 -152q123 72 266 72q113 0 148.5 -66.5t35.5 -209.5v-56q-78 14 -168 15q-209 0 -337.5 -91.5t-128.5 -269.5z M248 319q0 203 327 203q53 0 125 -10v-102q0 -115 -68.5 -186.5t-215.5 -71.5q-168 0 -168 167zM260 1393l475 -156l45 119l-463 196z" />
<glyph unicode="&#xe1;" horiz-adv-x="1042" d="M66 305q0 -143 79.5 -231t225.5 -88q260 0 342 200l8 -63q6 -72 38 -102.5t97.5 -30.5t144.5 28v127h-116v580q0 236 -77 334t-265 98q-219 0 -373 -94l80 -152q123 72 266 72q113 0 148.5 -66.5t35.5 -209.5v-56q-78 14 -168 15q-209 0 -337.5 -91.5t-128.5 -269.5z M248 319q0 203 327 203q53 0 125 -10v-102q0 -115 -68.5 -186.5t-215.5 -71.5q-168 0 -168 167zM260 1356l43 -119l477 156l-59 159z" />
<glyph unicode="&#xe2;" horiz-adv-x="1042" d="M66 305q0 -143 79.5 -231t225.5 -88q260 0 342 200l8 -63q6 -72 38 -102.5t97.5 -30.5t144.5 28v127h-116v580q0 236 -77 334t-265 98q-219 0 -373 -94l80 -152q123 72 266 72q113 0 148.5 -66.5t35.5 -209.5v-56q-78 14 -168 15q-209 0 -337.5 -91.5t-128.5 -269.5z M190 1358l53 -105l277 121l274 -121l56 105l-283 180h-98zM248 319q0 203 327 203q53 0 125 -10v-102q0 -115 -68.5 -186.5t-215.5 -71.5q-168 0 -168 167z" />
<glyph unicode="&#xe3;" horiz-adv-x="1042" d="M66 305q0 -143 79.5 -231t225.5 -88q260 0 342 200l8 -63q6 -72 38 -102.5t97.5 -30.5t144.5 28v127h-116v580q0 236 -77 334t-265 98q-219 0 -373 -94l80 -152q123 72 266 72q113 0 148.5 -66.5t35.5 -209.5v-56q-78 14 -168 15q-209 0 -337.5 -91.5t-128.5 -269.5z M164 1325l126 -68q27 49 49.5 70t57.5 21t117 -42t141 -42q129 0 219 180l-129 67q-55 -92 -104 -92q-29 0 -111 43t-145 43q-131 0 -221 -180zM248 319q0 203 327 203q53 0 125 -10v-102q0 -115 -68.5 -186.5t-215.5 -71.5q-168 0 -168 167z" />
<glyph unicode="&#xe4;" horiz-adv-x="1042" d="M66 305q0 -143 79.5 -231t225.5 -88q260 0 342 200l8 -63q6 -72 38 -102.5t97.5 -30.5t144.5 28v127h-116v580q0 236 -77 334t-265 98q-219 0 -373 -94l80 -152q123 72 266 72q113 0 148.5 -66.5t35.5 -209.5v-56q-78 14 -168 15q-209 0 -337.5 -91.5t-128.5 -269.5z M248 319q0 203 327 203q53 0 125 -10v-102q0 -115 -68.5 -186.5t-215.5 -71.5q-168 0 -168 167zM254 1276h174v223h-174v-223zM610 1276h174v223h-174v-223z" />
<glyph unicode="&#xe5;" horiz-adv-x="1042" d="M66 305q0 -143 79.5 -231t225.5 -88q260 0 342 200l8 -63q6 -72 38 -102.5t97.5 -30.5t144.5 28v127h-116v580q0 236 -77 334t-265 98q-219 0 -373 -94l80 -152q123 72 266 72q113 0 148.5 -66.5t35.5 -209.5v-56q-78 14 -168 15q-209 0 -337.5 -91.5t-128.5 -269.5z M248 319q0 203 327 203q53 0 125 -10v-102q0 -115 -68.5 -186.5t-215.5 -71.5q-168 0 -168 167zM284 1501q0 -121 64 -192.5t168 -71.5q102 0 166.5 71.5t64.5 192.5q0 119 -64.5 191.5t-166.5 72.5q-104 0 -168 -72.5t-64 -191.5zM405 1501q0 68 30 107t81 39t80.5 -39 t29.5 -107q0 -70 -29.5 -107.5t-80.5 -37.5t-81 38t-30 107z" />
<glyph unicode="&#xe6;" horiz-adv-x="1622" d="M63 305q0 -143 80 -231t226 -88q295 -1 387 241q98 -246 370 -245q283 0 426 227l-133 102q-106 -160 -286 -159q-133 0 -193.5 90t-67.5 284h650q4 115 -1 201t-29 171t-65 139.5t-112.5 87t-169.5 32.5q-215 0 -328 -141q-63 141 -274 141q-225 0 -377 -104l86 -146 q113 76 264 76q113 0 147.5 -66.5t34.5 -209.5v-58q-78 14 -168 15q-209 0 -338 -90.5t-129 -268.5zM246 319q0 203 329 203q51 0 123 -10v-102q0 -115 -68.5 -186.5t-213.5 -71.5q-170 0 -170 167zM877 684q16 154 77.5 228.5t180.5 74.5q205 0 204 -303h-462z" />
<glyph unicode="&#xe7;" horiz-adv-x="974" d="M78 571q-1 -507 323 -575l-22 -129l65 -37q74 6 109 -9.5t35 -64.5q0 -80 -113 -80q-82 0 -141 43l-72 -106q84 -63 215 -64q123 0 189.5 53.5t66.5 147.5q0 102 -66.5 144.5t-148.5 17.5l12 72q135 2 241 73.5t165 190.5l-150 78q-86 -170 -262 -170q-139 0 -199.5 99 t-60.5 314q0 211 61.5 312.5t198.5 101.5q158 0 238 -137l151 88q-121 223 -391 223q-444 0 -444 -586z" />
<glyph unicode="&#xe8;" horiz-adv-x="1011" d="M78 571q0 -590 436 -589q281 0 428 227l-135 102q-106 -160 -285 -159q-133 0 -194.5 89.5t-67.5 284.5h649q4 115 -1 201t-28.5 171t-64.5 139.5t-112.5 87t-170.5 32.5q-455 0 -454 -586zM244 1393l475 -156l45 119l-463 196zM264 684q16 154 79 228.5t181 74.5 q205 0 205 -303h-465z" />
<glyph unicode="&#xe9;" horiz-adv-x="1011" d="M78 571q0 -590 436 -589q281 0 428 227l-135 102q-106 -160 -285 -159q-133 0 -194.5 89.5t-67.5 284.5h649q4 115 -1 201t-28.5 171t-64.5 139.5t-112.5 87t-170.5 32.5q-455 0 -454 -586zM244 1356l43 -119l477 156l-59 159zM264 684q16 154 79 228.5t181 74.5 q205 0 205 -303h-465z" />
<glyph unicode="&#xea;" horiz-adv-x="1011" d="M78 571q0 -590 436 -589q281 0 428 227l-135 102q-106 -160 -285 -159q-133 0 -194.5 89.5t-67.5 284.5h649q4 115 -1 201t-28.5 171t-64.5 139.5t-112.5 87t-170.5 32.5q-455 0 -454 -586zM174 1358l53 -105l277 121l274 -121l56 105l-283 180h-98zM264 684 q16 154 79 228.5t181 74.5q205 0 205 -303h-465z" />
<glyph unicode="&#xeb;" horiz-adv-x="1011" d="M78 571q0 -590 436 -589q281 0 428 227l-135 102q-106 -160 -285 -159q-133 0 -194.5 89.5t-67.5 284.5h649q4 115 -1 201t-28.5 171t-64.5 139.5t-112.5 87t-170.5 32.5q-455 0 -454 -586zM238 1276h174v223h-174v-223zM264 684q16 154 79 228.5t181 74.5 q205 0 205 -303h-465zM594 1276h174v223h-174v-223z" />
<glyph unicode="&#xec;" horiz-adv-x="450" d="M-69 1393l475 -156l45 119l-463 196zM133 0h186v1135h-186v-1135z" />
<glyph unicode="&#xed;" horiz-adv-x="450" d="M0 1356l43 -119l477 156l-59 159zM133 0h186v1135h-186v-1135z" />
<glyph unicode="&#xee;" horiz-adv-x="450" d="M-105 1358l53 -105l277 121l274 -121l56 105l-283 180h-98zM133 0h186v1135h-186v-1135z" />
<glyph unicode="&#xef;" horiz-adv-x="450" d="M-41 1276h174v223h-174v-223zM133 0h186v1135h-186v-1135zM315 1276h174v223h-174v-223z" />
<glyph unicode="&#xf0;" d="M78 561q0 -580 463 -579q217 0 340 147t123 455q0 449 -136 743l148 59l-53 132l-160 -66q-41 70 -109 150l-147 -95q45 -51 88 -125l-150 -61l54 -131l163 67q63 -139 89 -268q-43 78 -108 112t-165 34q-209 0 -324.5 -141.5t-115.5 -432.5zM264 563q0 209 67.5 310.5 t209.5 101.5q276 0 276 -412q0 -409 -276.5 -409t-276.5 409z" />
<glyph unicode="&#xf1;" d="M123 0h186v688q0 295 269 295q117 0 157.5 -65.5t40.5 -215.5v-702h185v743q0 213 -72 313.5t-252 100.5q-121 0 -214 -51t-132 -152l-29 185l-139 -15v-1124zM183 1325l126 -68q27 49 49.5 70t57.5 21t117 -42t141 -42q129 0 219 180l-129 67q-55 -92 -104 -92 q-29 0 -111 43t-145 43q-131 0 -221 -180z" />
<glyph unicode="&#xf2;" d="M78 569q0 -297 120.5 -442t342 -145t342.5 145t121 442q0 299 -121 444.5t-342.5 145.5t-342 -145.5t-120.5 -444.5zM264 567q0 416 277 416q141 0 208.5 -102.5t67.5 -313.5t-67.5 -312t-209 -101t-209 101t-67.5 312zM279 1393l475 -156l45 119l-463 196z" />
<glyph unicode="&#xf3;" d="M78 569q0 -297 120.5 -442t342 -145t342.5 145t121 442q0 299 -121 444.5t-342.5 145.5t-342 -145.5t-120.5 -444.5zM264 567q0 416 277 416q141 0 208.5 -102.5t67.5 -313.5t-67.5 -312t-209 -101t-209 101t-67.5 312zM279 1356l43 -119l477 156l-59 159z" />
<glyph unicode="&#xf4;" d="M78 569q0 -297 120.5 -442t342 -145t342.5 145t121 442q0 299 -121 444.5t-342.5 145.5t-342 -145.5t-120.5 -444.5zM209 1358l53 -105l277 121l274 -121l56 105l-283 180h-98zM264 567q0 416 277 416q141 0 208.5 -102.5t67.5 -313.5t-67.5 -312t-209 -101t-209 101 t-67.5 312z" />
<glyph unicode="&#xf5;" d="M78 569q0 -297 120.5 -442t342 -145t342.5 145t121 442q0 299 -121 444.5t-342.5 145.5t-342 -145.5t-120.5 -444.5zM183 1325l126 -68q27 49 49.5 70t57.5 21t117 -42t141 -42q129 0 219 180l-129 67q-55 -92 -104 -92q-29 0 -111 43t-145 43q-131 0 -221 -180zM264 567 q0 416 277 416q141 0 208.5 -102.5t67.5 -313.5t-67.5 -312t-209 -101t-209 101t-67.5 312z" />
<glyph unicode="&#xf6;" d="M78 569q0 -297 120.5 -442t342 -145t342.5 145t121 442q0 299 -121 444.5t-342.5 145.5t-342 -145.5t-120.5 -444.5zM264 567q0 416 277 416q141 0 208.5 -102.5t67.5 -313.5t-67.5 -312t-209 -101t-209 101t-67.5 312zM273 1276h174v223h-174v-223zM629 1276h174v223 h-174v-223z" />
<glyph unicode="&#xf7;" horiz-adv-x="1204" d="M176 633h850v174h-850v-174zM500 244h205v223h-205v-223zM500 971h205v221h-205v-221z" />
<glyph unicode="&#xf8;" d="M78 569q0 -332 155 -481l-63 -133l137 -70l58 125q74 -29 176 -28q221 0 342 145t121 442q0 337 -158 484l63 133l-137 69l-57 -125q-74 29 -174 29q-221 0 -342 -145.5t-121 -444.5zM260 567q0 420 281 420q55 0 104 -16l-323 -711q-61 109 -62 307zM434 166l324 711 q63 -106 63 -310q0 -420 -280 -420q-61 0 -107 19z" />
<glyph unicode="&#xf9;" horiz-adv-x="1073" d="M117 395q0 -213 71.5 -312t253.5 -99q121 0 212 50t130 148l31 -190l135 14v1129h-184v-691q0 -145 -63.5 -218.5t-200.5 -73.5q-117 0 -158 65.5t-41 212.5v705h-186v-740zM277 1393l475 -156l45 119l-463 196z" />
<glyph unicode="&#xfa;" horiz-adv-x="1073" d="M117 395q0 -213 71.5 -312t253.5 -99q121 0 212 50t130 148l31 -190l135 14v1129h-184v-691q0 -145 -63.5 -218.5t-200.5 -73.5q-117 0 -158 65.5t-41 212.5v705h-186v-740zM277 1356l43 -119l477 156l-59 159z" />
<glyph unicode="&#xfb;" horiz-adv-x="1073" d="M117 395q0 -213 71.5 -312t253.5 -99q121 0 212 50t130 148l31 -190l135 14v1129h-184v-691q0 -145 -63.5 -218.5t-200.5 -73.5q-117 0 -158 65.5t-41 212.5v705h-186v-740zM207 1358l53 -105l277 121l274 -121l56 105l-283 180h-98z" />
<glyph unicode="&#xfc;" horiz-adv-x="1073" d="M117 395q0 -213 71.5 -312t253.5 -99q121 0 212 50t130 148l31 -190l135 14v1129h-184v-691q0 -145 -63.5 -218.5t-200.5 -73.5q-117 0 -158 65.5t-41 212.5v705h-186v-740zM271 1276h174v223h-174v-223zM627 1276h174v223h-174v-223z" />
<glyph unicode="&#xfd;" horiz-adv-x="925" d="M20 1135l357 -1139q-33 -100 -67 -135t-91 -35q-76 0 -164 18l-28 -163q106 -23 209 -23q117 0 183 64.5t107 193.5l383 1219h-184l-258 -869l-258 869h-189zM203 1356l43 -119l477 156l-59 159z" />
<glyph unicode="&#xfe;" horiz-adv-x="1116" d="M123 -324h186v492q102 -182 332 -182q205 0 301 146.5t96 438.5q0 586 -381 586q-246 0 -350 -209v627h-184v-1899zM309 567q0 201 78 308.5t219 107.5q131 0 188.5 -101.5t57.5 -314.5q0 -217 -56.5 -315t-191.5 -98q-295 0 -295 413z" />
<glyph unicode="&#xff;" horiz-adv-x="925" d="M20 1135l357 -1139q-33 -100 -67 -135t-91 -35q-76 0 -164 18l-28 -163q106 -23 209 -23q117 0 183 64.5t107 193.5l383 1219h-184l-258 -869l-258 869h-189zM197 1276h174v223h-174v-223zM553 1276h174v223h-174v-223z" />
<glyph unicode="&#x152;" horiz-adv-x="1988" d="M76 760q0 -385 155.5 -581.5t448.5 -196.5q272 0 422 204v-186h790v176h-616v504h551v172h-551v483h610v183h-784v-185q-150 205 -422 205q-293 0 -448.5 -196.5t-155.5 -581.5zM270 756q0 598 410 598q412 0 412 -598q0 -596 -412 -596q-410 0 -410 596z" />
<glyph unicode="&#x153;" horiz-adv-x="1738" d="M78 569q0 -297 120.5 -442t342.5 -145q251 0 360 188q100 -188 340 -188q285 0 428 227l-135 102q-102 -160 -285 -159q-131 0 -192.5 90t-67.5 284h649q4 115 -1 201t-28.5 171t-64.5 139.5t-112.5 87t-169.5 32.5q-258 0 -361 -188q-106 190 -360 190 q-221 0 -342 -145.5t-121 -444.5zM264 567q0 416 277 416q141 0 208.5 -102.5t67.5 -313.5t-67.5 -312t-209 -101t-209 101t-67.5 312zM993 684q16 154 78 228.5t180 74.5q205 0 205 -303h-463z" />
<glyph unicode="&#x178;" horiz-adv-x="1210" d="M33 1518l475 -959v-559h194v559l476 959h-197l-373 -758l-370 758h-205zM338 1634h174v223h-174v-223zM694 1634h174v223h-174v-223z" />
<glyph unicode="&#x2c6;" horiz-adv-x="1009" d="M176 1358l53 -105l277 121l274 -121l56 105l-283 180h-98z" />
<glyph unicode="&#x2dc;" horiz-adv-x="1009" d="M150 1325l126 -68q27 49 49.5 70t57.5 21t117 -42t141 -42q129 0 219 180l-129 67q-55 -92 -104 -92q-29 0 -111 43t-145 43q-131 0 -221 -180z" />
<glyph unicode="&#x2000;" horiz-adv-x="973" />
<glyph unicode="&#x2001;" horiz-adv-x="1946" />
<glyph unicode="&#x2002;" horiz-adv-x="973" />
<glyph unicode="&#x2003;" horiz-adv-x="1946" />
<glyph unicode="&#x2004;" horiz-adv-x="648" />
<glyph unicode="&#x2005;" horiz-adv-x="486" />
<glyph unicode="&#x2006;" horiz-adv-x="324" />
<glyph unicode="&#x2007;" horiz-adv-x="324" />
<glyph unicode="&#x2008;" horiz-adv-x="243" />
<glyph unicode="&#x2009;" horiz-adv-x="389" />
<glyph unicode="&#x200a;" horiz-adv-x="108" />
<glyph unicode="&#x2010;" horiz-adv-x="761" d="M84 555h594v172h-594v-172z" />
<glyph unicode="&#x2011;" horiz-adv-x="761" d="M84 555h594v172h-594v-172z" />
<glyph unicode="&#x2012;" horiz-adv-x="761" d="M84 555h594v172h-594v-172z" />
<glyph unicode="&#x2013;" horiz-adv-x="1218" d="M84 555h1053v172h-1053v-172z" />
<glyph unicode="&#x2014;" horiz-adv-x="1595" d="M84 555h1427v172h-1427v-172z" />
<glyph unicode="&#x2018;" horiz-adv-x="454" d="M113 995h229v250h-106q0 68 21.5 103.5t86.5 76.5l-57 95q-106 -61 -140 -130t-34 -210v-185z" />
<glyph unicode="&#x2019;" horiz-adv-x="454" d="M111 1087l57 -92q104 61 139 130t35 208v185h-229v-250h108q0 -68 -22.5 -104t-87.5 -77z" />
<glyph unicode="&#x201a;" horiz-adv-x="1857" d="M76 682q106 -172 317 -172q137 0 222 85t85 251q0 141 -69.5 226t-190.5 85q-86 0 -141 -33l14 195h312v145h-443l-37 -432l113 -57q76 45 148 45q63 0 100 -44t37 -130q0 -190 -152 -191q-66 0 -112 23.5t-91 87.5zM504 0h166l710 1466h-168zM1174 283q0 -135 76.5 -216 t226.5 -81q152 0 228.5 79.5t76.5 217.5q0 176 -127 241q92 61 92 195q0 115 -66.5 181.5t-203.5 66.5q-133 0 -200 -66.5t-67 -181.5q0 -129 95 -195q-131 -68 -131 -241zM1327 289q0 78 38 125t112 47q76 0 114.5 -47t38.5 -125q1 -162 -153 -162q-150 0 -150 162z M1360 709q0 117 117 116q119 0 118 -116q1 -129 -118 -129q-117 0 -117 129z" />
<glyph unicode="&#x201c;" horiz-adv-x="808" d="M113 999h227v248h-107q0 68 21.5 103.5t87.5 74.5l-55 93q-106 -61 -140 -128t-34 -208v-183zM469 999h227v248h-106q0 68 21.5 103.5t86.5 74.5l-57 93q-104 -61 -138 -128t-34 -208v-183z" />
<glyph unicode="&#x201d;" horiz-adv-x="808" d="M111 1090l55 -91q106 61 140 129t34 207v183h-227v-250h106q0 -66 -21.5 -102t-86.5 -76zM467 1090l55 -91q106 61 140 129t34 207v183h-227v-250h106q0 -66 -21.5 -102t-86.5 -76z" />
<glyph unicode="&#x201e;" horiz-adv-x="808" d="M111 -178l55 -92q104 59 139 127.5t35 208.5v184h-227v-250h106q0 -66 -21.5 -101.5t-86.5 -76.5zM467 -178l55 -92q104 59 139 127.5t35 208.5v184h-227v-250h106q0 -66 -21.5 -101.5t-86.5 -76.5z" />
<glyph unicode="&#x2022;" horiz-adv-x="626" d="M168 446h293v353h-293v-353z" />
<glyph unicode="&#x2026;" horiz-adv-x="1318" d="M113 0h229v250h-229v-250zM545 0h229v250h-229v-250zM975 0h231v250h-231v-250z" />
<glyph unicode="&#x202f;" horiz-adv-x="389" />
<glyph unicode="&#x2039;" horiz-adv-x="1669" d="M96 1278q94 0 144 14v-766h166v940h-113q-55 -35 -197 -34v-154zM328 0h168l708 1466h-168zM975 426q0 -250 98 -354q80 -86 215 -86q141 0 221 86t80 258q0 319 -258 319q-117 0 -194 -74q16 121 81.5 175.5t204.5 54.5q4 0 9.5 -1t16.5 -2t21 -1l9 145q-27 4 -54 4 q-238 0 -344 -122.5t-106 -401.5zM1133 334q0 94 50 138t115.5 44t100.5 -42t35 -146q-1 -197 -138 -197q-164 0 -163 203z" />
<glyph unicode="&#x203a;" horiz-adv-x="1679" d="M96 1278q94 0 144 14v-766h166v940h-113q-55 -35 -197 -34v-154zM328 0h168l708 1466h-168zM997 283q0 -135 77 -216t226.5 -81t226.5 80.5t77 216.5q0 176 -127 241q92 61 92 195q0 115 -67.5 181.5t-201.5 66.5q-135 0 -201.5 -66.5t-66.5 -181.5q0 -127 92 -195 q-127 -68 -127 -241zM1149 289q0 78 38 125t113 47q74 0 113 -47t39 -125q0 -76 -38 -119t-114 -43q-152 0 -151 162zM1184 709q0 117 116.5 116.5t116.5 -116.5q0 -129 -116.5 -129t-116.5 129z" />
<glyph unicode="&#x205f;" horiz-adv-x="486" />
<glyph unicode="&#x20ac;" horiz-adv-x="1218" d="M63 506h201q68 -524 459 -524q303 0 438 323l-155 64q-43 -106 -104.5 -160.5t-174.5 -54.5q-123 0 -190.5 86t-90.5 266h461v156h-471v133h471v155h-458q23 184 92 271.5t194 87.5q172 0 256 -160l150 82q-125 252 -404 252q-406 0 -473 -533h-201v-155h189v-133h-189 v-156z" />
<glyph unicode="&#x2122;" horiz-adv-x="1822" d="M88 1376h252v-801h152v801h251v142h-655v-142zM819 575h144v623l192 -623h123l192 625v-625h150v943h-176l-225 -717l-224 717h-176v-943z" />
<glyph unicode="&#xe000;" horiz-adv-x="1136" d="M0 0v1137h1137v-1137h-1137z" />
<glyph unicode="&#xfb01;" horiz-adv-x="1148" d="M43 967h184v-967h185v967h264v168h-264v127q0 86 33.5 125.5t115.5 39.5q66 0 119 -16l39 166q-78 20 -172 20q-156 0 -238 -83.5t-82 -249.5v-129h-184v-168zM827 1270h191v229h-191v-229zM829 0h185v1135h-185v-1135z" />
<glyph unicode="&#xfb02;" horiz-adv-x="1148" d="M43 967h184v-967h185v967h264v168h-264v127q0 86 33.5 125.5t115.5 39.5q66 0 119 -16l39 166q-78 20 -172 20q-156 0 -238 -83.5t-82 -249.5v-129h-184v-168zM829 0h185v1575h-185v-1575z" />
</font>
</defs>
</svg>
