<?xml version="1.0" standalone="no"?>
<!DOCTYPE svg PUBLIC "-//W3C//DTD SVG 1.1//EN" "http://www.w3.org/Graphics/SVG/1.1/DTD/svg11.dtd" >
<svg xmlns="http://www.w3.org/2000/svg">
<metadata></metadata>
<defs>
<font id="ctboomerextracondbold" horiz-adv-x="894" >
<font-face units-per-em="2048" ascent="1638" descent="-410" />
<missing-glyph horiz-adv-x="264" />
<glyph horiz-adv-x="2048" />
<glyph horiz-adv-x="2048" />
<glyph unicode="&#xd;" horiz-adv-x="681" />
<glyph unicode=" "  horiz-adv-x="264" />
<glyph unicode="&#x09;" horiz-adv-x="264" />
<glyph unicode="&#xa0;" horiz-adv-x="264" />
<glyph unicode="!" horiz-adv-x="583" d="M135 0v342h314v-342h-314zM143 1518h301l-24 -1057h-254z" />
<glyph unicode="&#x22;" horiz-adv-x="886" d="M111 1479h286l-12 -709h-260zM489 1479h287l-14 -709h-260z" />
<glyph unicode="#" horiz-adv-x="1062" d="M59 371v262h146l16 155h-162v265h191l49 426h262l-49 -426h109l51 426h260l-49 -426h121v-265h-150l-16 -155h166v-262h-197l-41 -371h-262l41 371h-109l-41 -371h-262l41 371h-115zM442 606h148l26 209h-149z" />
<glyph unicode="$" horiz-adv-x="872" d="M31 94l123 213q111 -68 245 -67q152 0 154 147q0 59 -49 120.5t-121 119t-142.5 122t-119.5 153.5t-49 192q0 305 260 372v119h227v-106q133 -16 242 -82l-125 -221q-88 51 -197 51q-61 0 -97 -34t-36 -97q0 -55 49 -112.5t120 -115t141.5 -122t119.5 -158.5t49 -201 q0 -311 -266 -377v-188h-227v176q-154 10 -301 96z" />
<glyph unicode="%" horiz-adv-x="1773" d="M41 997q0 305 96 406q86 90 242 90t244 -92q94 -98 94 -404q0 -158 -22.5 -257t-86.5 -156q-86 -82 -229 -82t-229 82q-63 57 -86 155.5t-23 257.5zM287 995q0 -162 16.5 -219t75.5 -57q57 0 73.5 57.5t16.5 218.5q0 160 -16.5 217.5t-73.5 57.5q-59 0 -75.5 -57.5 t-16.5 -217.5zM494 0l546 1479h238l-547 -1479h-237zM1057 479q0 305 96 406q86 90 241.5 90t243.5 -92q94 -102 95 -404q0 -158 -22.5 -257t-86.5 -156q-86 -82 -229.5 -82t-229.5 82q-63 57 -85.5 155t-22.5 258zM1303 475q0 -162 16.5 -218t75.5 -56q57 0 72.5 57 t15.5 217q0 162 -15.5 219.5t-72.5 57.5q-59 0 -75.5 -57.5t-16.5 -219.5z" />
<glyph unicode="&#x26;" horiz-adv-x="1196" d="M33 379q0 274 268 463q-82 193 -82 340q0 162 84 257t256 95q299 0 299 -311q0 -272 -237 -453q25 -45 67 -115q35 -59 98 -151q33 115 66 356l248 -22q-55 -381 -152 -557q121 -160 221 -281h-319q-35 39 -72 84q-141 -96 -358 -96q-180 0 -283.5 96t-103.5 295z M305 385q0 -164 160 -164q104 0 174 47q-86 117 -164 244q-25 37 -69 115q-100 -102 -101 -242zM475 1171q0 -82 47 -198q100 111 101 227q0 94 -68 94q-80 0 -80 -123z" />
<glyph unicode="'" horiz-adv-x="509" d="M111 1479h288l-12 -709h-262z" />
<glyph unicode="(" horiz-adv-x="751" d="M131 623q0 317 84 571t193 393l213 -127q-61 -102 -99.5 -191t-73 -262t-34.5 -382q0 -504 207 -836l-213 -129q-276 354 -277 963z" />
<glyph unicode=")" horiz-adv-x="751" d="M131 -211q59 102 98 190.5t73 260.5t34 383q0 510 -205 837l211 127q279 -346 279 -962q0 -317 -84 -571.5t-195 -393.5z" />
<glyph unicode="*" horiz-adv-x="919" d="M55 883l238 151l-238 154l131 201l183 -170l-23 301h225l-20 -306l182 175l133 -199l-243 -156l243 -153l-131 -197l-184 170l18 -303h-223l23 299l-183 -168z" />
<glyph unicode="+" horiz-adv-x="1011" d="M121 588v266h246v338h276v-338h248v-266h-248v-342h-276v342h-246z" />
<glyph unicode="," horiz-adv-x="452" d="M72 0v348h309v-239q0 -184 -38 -254t-181 -148l-86 139q86 57 104.5 79t18.5 75h-127z" />
<glyph unicode="-" horiz-adv-x="561" d="M47 555v262h465v-262h-465z" />
<glyph unicode="." horiz-adv-x="452" d="M72 0v348h309v-348h-309z" />
<glyph unicode="/" horiz-adv-x="835" d="M0 0l555 1518h281l-555 -1518h-281z" />
<glyph unicode="0" horiz-adv-x="1021" d="M78 739q0 258 25.5 406.5t103.5 232.5q102 115 305 115q201 0 303 -113q78 -84 103.5 -234.5t25.5 -406.5q0 -270 -27.5 -421.5t-109.5 -233.5q-105 -100 -295 -100q-188 0 -293 98q-86 80 -113.5 232.5t-27.5 424.5zM365 739q0 -301 26.5 -399t120.5 -98q92 0 117.5 98 t25.5 399q0 299 -24.5 393.5t-118.5 94.5t-120.5 -94.5t-26.5 -393.5z" />
<glyph unicode="1" horiz-adv-x="610" d="M35 1167v260q172 0 280 52h168v-1479h-280v1202q-72 -35 -168 -35z" />
<glyph unicode="2" horiz-adv-x="862" d="M53 0l4 135q6 145 54.5 277.5t114 227.5t130 176t108.5 157t44 137q0 123 -127 123q-82 0 -184 -70l-142 215q158 115 353 115q201 0 290.5 -90t89.5 -279q0 -94 -44 -193.5t-107.5 -186.5t-127 -169.5t-109.5 -170t-50 -160.5h438v-244h-735z" />
<glyph unicode="3" horiz-adv-x="823" d="M4 82l131 215q100 -61 199 -61q86 0 122 50t36 173q0 131 -46.5 171t-201.5 40v233q133 0 176 39t43 143q0 82 -31 117t-108 35q-96 0 -181 -49l-116 225q137 82 348 82q186 0 275 -82t89 -262q0 -139 -29.5 -216t-107.5 -112q100 -37 135 -119.5t35 -265.5 q0 -233 -97 -343.5t-308 -110.5q-209 0 -363 98z" />
<glyph unicode="4" horiz-adv-x="962" d="M47 283v223l395 973h283l-389 -955h196l50 273h204v-273h142v-241h-142v-283h-258v283h-481z" />
<glyph unicode="5" horiz-adv-x="874" d="M14 104l150 207q109 -76 217 -75q88 0 124 55t36 213q0 154 -29 204t-106 50q-63 0 -127 -37l-201 63l24 695h639v-254h-399l-6 -277q82 45 172 45q180 0 246.5 -109.5t66.5 -381.5q0 -283 -90 -400.5t-323 -117.5q-238 0 -394 120z" />
<glyph unicode="6" horiz-adv-x="978" d="M76 657q0 279 29.5 437.5t115.5 246.5q70 74 179.5 107t289.5 33h107v-254h-105q-190 0 -260 -71t-72 -243q61 106 250 107q80 0 136.5 -24.5t90 -66.5t54 -107.5t27 -135.5t6.5 -164q0 -332 -121 -446q-98 -92 -295 -92q-186 0 -291 98q-82 78 -111.5 217t-29.5 358z M371 535q0 -178 28.5 -242t114.5 -64q76 0 102.5 62.5t26.5 234.5q0 154 -26.5 210.5t-98.5 56.5q-74 0 -110.5 -53.5t-36.5 -204.5z" />
<glyph unicode="7" horiz-adv-x="808" d="M39 1225v254h758v-209q-150 -262 -232 -559t-84 -711h-282q-10 371 71 692q74 293 207 533h-438z" />
<glyph unicode="8" horiz-adv-x="980" d="M68 420q0 162 33.5 255t136.5 140q-76 43 -102.5 117t-26.5 205q0 170 86 262q94 98 294 98q203 0 299 -100q82 -90 82 -260q0 -131 -27.5 -207t-101.5 -115q109 -47 140.5 -137t31.5 -258q0 -240 -114 -344q-103 -96 -310 -96q-203 0 -309 96q-113 104 -112 344z M352 449q0 -131 29 -186.5t108.5 -55.5t109.5 55t30 187q0 133 -30 187t-109.5 54t-108.5 -54t-29 -187zM381 1085q0 -100 23.5 -141t85 -41t85 41t23.5 141q0 102 -23.5 142.5t-85 40.5t-85 -40t-23.5 -143z" />
<glyph unicode="9" horiz-adv-x="978" d="M55 961q0 334 121 446q98 92 295 92q184 0 291 -96q82 -78 111.5 -217t29.5 -359q0 -281 -29.5 -441.5t-113.5 -248.5q-133 -139 -469 -139h-107v246h105q188 0 257.5 72.5t71.5 244.5q-59 -106 -247 -106q-98 0 -164 36.5t-97.5 110.5t-43 157t-11.5 202zM336 948 q0 -152 27.5 -208t99.5 -56q74 0 110.5 52t36.5 202q0 178 -28.5 241.5t-114.5 63.5q-76 0 -103.5 -62.5t-27.5 -232.5z" />
<glyph unicode=":" horiz-adv-x="479" d="M88 0v344h305v-344h-305zM88 817v344h305v-344h-305z" />
<glyph unicode=";" horiz-adv-x="479" d="M88 0v344h305v-235q0 -174 -39 -250t-178 -152l-82 139q80 51 99.5 75t19.5 79h-125zM88 817v344h305v-344h-305z" />
<glyph unicode="&#x3c;" horiz-adv-x="1011" d="M160 614v193l643 410v-283l-357 -223l357 -224v-284z" />
<glyph unicode="=" horiz-adv-x="1011" d="M129 365v262h756v-262h-756zM129 797v262h756v-262h-756z" />
<glyph unicode="&#x3e;" horiz-adv-x="1011" d="M211 203v282l356 224l-356 223v285l641 -412v-195z" />
<glyph unicode="?" horiz-adv-x="907" d="M84 1421q160 115 358 115q373 0 373 -344q0 -70 -24.5 -142.5t-48 -115.5t-72.5 -121q-66 -102 -94.5 -185t-18.5 -179h-270q-12 88 12.5 180t53 144t83.5 140q104 162 105 242q0 121 -131 121q-88 0 -185 -70zM266 0v309h312v-309h-312z" />
<glyph unicode="@" horiz-adv-x="1296" d="M55 604q0 131 3 218t16.5 191.5t38 172t67.5 136.5t105.5 107.5t153.5 63.5t208 25q119 0 210 -25t154.5 -63.5t106.5 -107.5t67.5 -136.5t38 -172t16.5 -191.5t3 -218v-276q0 -129 -52 -185.5t-161 -56.5q-111 0 -151.5 30.5t-61.5 92.5q-63 -125 -258 -125 q-119 0 -180 68q-55 55 -70.5 159.5t-15.5 288.5q0 190 16.5 293.5t75.5 159.5q66 59 172 59q156 0 211 -90l31 76l186 -13v-755q0 -72 12.5 -99.5t55.5 -27.5t53 28.5t10 98.5v274q0 86 -1 137.5t-4 124t-9 116.5t-18.5 101.5t-30 92t-43 74.5t-60.5 62.5t-79 44t-100 30 t-124 8.5q-74 0 -135 -12.5t-106.5 -32t-80 -57.5t-58 -73.5t-40 -95t-25.5 -106.5t-13.5 -126t-5.5 -136.5t-1 -151.5t1 -151.5t5.5 -136t13.5 -127t25.5 -107.5t40 -95t58 -74t80 -57.5t106.5 -31.5t135 -12h238v-123h-238q-117 0 -208 24.5t-153.5 63.5t-105.5 107.5 t-67.5 136t-38 172t-16.5 192.5t-3 219zM532 592q0 -172 18.5 -233.5t86.5 -61.5q76 0 95.5 60.5t19.5 234.5t-19.5 233.5t-95.5 59.5q-68 0 -86.5 -59.5t-18.5 -233.5z" />
<glyph unicode="A" horiz-adv-x="1038" d="M12 0l367 1526h280l369 -1526h-293l-49 240h-348l-49 -240h-277zM395 473h236l-119 565z" />
<glyph unicode="B" horiz-adv-x="968" d="M88 0v1518h383q244 0 342 -92.5t98 -295.5q0 -137 -35.5 -216.5t-127.5 -116.5q109 -39 151.5 -129t42.5 -254q0 -213 -116.5 -313.5t-348.5 -100.5h-389zM371 238h112q96 0 135 48t39 158q0 115 -41 159t-139 44h-106v-409zM371 881h94q94 0 129 49t35 153.5t-38 146.5 t-132 42h-88v-391z" />
<glyph unicode="C" horiz-adv-x="847" d="M47 760q0 256 28.5 406.5t114.5 242.5q117 127 340 127q184 0 312 -72l-137 -245q-80 38 -154 38h-4q-123 0 -166 -105t-43 -398q0 -289 44 -395.5t165 -106.5q66 0 176 53l131 -233q-136 -88 -322 -88q-215 0 -331 116q-90 86 -122 244t-32 416z" />
<glyph unicode="D" horiz-adv-x="1040" d="M88 0v1518h399q248 0 367 -123q86 -90 112.5 -239.5t26.5 -395.5q0 -256 -28.5 -409.5t-120.5 -239.5q-117 -111 -363 -111h-393zM375 262h114q139 0 175 102.5t36 391.5q0 98 -2 157.5t-9 122t-21.5 96t-38 62.5t-59 40t-87.5 11h-108v-983z" />
<glyph unicode="E" horiz-adv-x="854" d="M88 0v1518h709v-273h-422v-352h385v-248h-385v-385h426v-260h-713z" />
<glyph unicode="F" horiz-adv-x="823" d="M88 0v1518h703v-273h-416v-393h395v-256h-395v-596h-287z" />
<glyph unicode="G" horiz-adv-x="983" d="M47 754q0 244 32 404.5t120 252.5q119 125 352 125q197 0 326 -88l-150 -236q-80 45 -160 45q-145 0 -189 -103t-44 -400q0 -295 32.5 -404.5t147.5 -109.5q96 0 131 54t35 189v103h-199v248h432v-828l-192 -12l-16 110q-41 -61 -98.5 -88.5t-166.5 -27.5 q-121 0 -201.5 56t-120.5 168t-55.5 237.5t-15.5 304.5z" />
<glyph unicode="H" horiz-adv-x="1079" d="M88 0v1518h287v-607h330v607h286v-1518h-286v639h-330v-639h-287z" />
<glyph unicode="I" horiz-adv-x="491" d="M102 0v1518h287v-1518h-287z" />
<glyph unicode="J" horiz-adv-x="643" d="M37 0v260h119q68 0 93 26.5t25 88.5v1143h289v-1170q0 -190 -89 -269t-257 -79h-180z" />
<glyph unicode="K" horiz-adv-x="1009" d="M88 0v1518h283v-664l286 664h287l-282 -609l329 -909h-303l-209 592l-108 -250v-342h-283z" />
<glyph unicode="L" horiz-adv-x="784" d="M88 0v1518h287v-1258h393v-260h-680z" />
<glyph unicode="M" horiz-adv-x="1294" d="M88 0v1518h358l199 -926l205 926h356v-1518h-272v948l-207 -948h-182l-207 952v-952h-250z" />
<glyph unicode="N" horiz-adv-x="1062" d="M88 0v1518h295l326 -803v803h266v-1518h-258l-363 870v-870h-266z" />
<glyph unicode="O" horiz-adv-x="1071" d="M47 760q0 248 27.5 401.5t115.5 245.5q121 131 345 131q219 0 342 -127q90 -92 118.5 -246.5t28.5 -404.5q0 -258 -29.5 -414t-126.5 -246q-126 -116 -333 -116q-209 0 -332 116q-96 90 -126 246t-30 414zM338 754q0 -96 2 -154.5t8 -123t19.5 -101.5t35 -69t54 -45 t78 -13t78 13t54 45t35 69t19.5 100.5t8 123.5t2 154.5t-2 154t-8 124t-19.5 101t-35 68.5t-54 45.5t-78 13.5t-78 -13.5t-54 -45.5t-35 -68.5t-19.5 -101t-8 -124t-2 -153.5z" />
<glyph unicode="P" horiz-adv-x="987" d="M88 0v1518h381q272 0 374.5 -129t102.5 -385q0 -125 -20.5 -217.5t-71.5 -170t-147.5 -118.5t-235.5 -41h-98v-457h-285zM373 709h94q111 0 151.5 61t40.5 215t-40.5 215.5t-151.5 61.5h-94v-553z" />
<glyph unicode="Q" horiz-adv-x="1069" d="M47 760q0 248 27.5 401.5t115.5 245.5q121 131 345 131q219 0 342 -127q90 -92 118.5 -246.5t28.5 -404.5q0 -256 -29.5 -405.5t-126.5 -241.5q-92 -86 -262 -101q0 -68 20.5 -94.5t86 -26.5t135.5 13l26 -248q-73 -12 -192 -12q-193 0 -268 89q-61 73 -61 220q0 32 3 67 q-90 29 -153 93q-96 90 -126 240.5t-30 406.5zM338 748q0 -115 3 -182.5t13.5 -138.5t32 -106.5t57.5 -58t91 -22.5q53 0 90 22.5t58.5 58t31.5 106.5t13 139.5t3 181.5q0 96 -2 155.5t-8 125t-19.5 102t-35 69.5t-54 46.5t-78 13.5t-78 -13.5t-54 -46.5t-35 -69.5 t-19.5 -102t-8 -125t-2 -155.5z" />
<glyph unicode="R" horiz-adv-x="987" d="M88 0v1518h383q264 0 364.5 -129t100.5 -375q0 -332 -188 -447l180 -567h-289l-150 487h-120v-487h-281zM369 733h92q109 0 148.5 59.5t39.5 204.5q0 147 -40 206t-150 59h-90v-529z" />
<glyph unicode="S" horiz-adv-x="886" d="M6 86l131 231q125 -71 254 -71h4q80 0 122 41t42 116q0 53 -38 106.5t-94 96.5t-122.5 98.5t-123 109.5t-94.5 134t-38 170q0 209 117 313.5t309.5 104.5t341.5 -90l-137 -240q-94 53 -201 54q-68 0 -106.5 -36t-38.5 -104q0 -53 52 -111.5t128 -115.5t150.5 -122.5 t127 -161t52.5 -206.5q0 -209 -114.5 -314t-321.5 -105q-227 0 -402 102z" />
<glyph unicode="T" horiz-adv-x="886" d="M14 1247v271h858v-271h-284v-1247h-291v1247h-283z" />
<glyph unicode="U" horiz-adv-x="1058" d="M80 479v1039h289v-1026q0 -137 35.5 -191.5t130.5 -54.5q92 0 128.5 54t36.5 192v1026h281v-1039q0 -143 -21.5 -238.5t-87.5 -156.5q-111 -104 -344 -104q-225 0 -335 100q-66 61 -89.5 157.5t-23.5 241.5z" />
<glyph unicode="V" horiz-adv-x="1028" d="M16 1518h295l207 -1039l205 1039h291l-359 -1526h-282z" />
<glyph unicode="W" horiz-adv-x="1472" d="M43 1518h291l129 -936l166 936h237l168 -936l129 936h267l-256 -1526h-259l-178 973l-176 -973h-262z" />
<glyph unicode="X" horiz-adv-x="1040" d="M23 0l344 805l-308 713h301l177 -406l155 406h289l-307 -723l344 -795h-301l-215 496l-193 -496h-286z" />
<glyph unicode="Y" horiz-adv-x="997" d="M-10 1518h299l213 -650l215 650h291l-367 -1012v-506h-287v512z" />
<glyph unicode="Z" horiz-adv-x="884" d="M31 0v219l473 1026h-451v273h783v-244l-467 -1014h483v-260h-821z" />
<glyph unicode="[" horiz-adv-x="751" d="M143 -311v1874h496v-238h-215v-1411h219v-225h-500z" />
<glyph unicode="\" horiz-adv-x="835" d="M0 1518h281l555 -1518h-281z" />
<glyph unicode="]" horiz-adv-x="751" d="M109 -86h219v1411h-215v238h497v-1874h-501v225z" />
<glyph unicode="^" horiz-adv-x="792" d="M78 1329l274 184h88l277 -184l-82 -149l-240 100l-235 -100z" />
<glyph unicode="_" horiz-adv-x="608" d="M-51 -82h708v-201h-708v201z" />
<glyph unicode="`" horiz-adv-x="792" d="M143 1327l58 236l444 -136l-45 -192z" />
<glyph unicode="a" d="M33 354q0 233 101.5 326.5t332.5 93.5h59q-2 80 -21.5 108.5t-82.5 28.5q-119 0 -209 -43l-104 250q135 61 348 62q197 0 276 -88q66 -72 66 -261v-485q0 -47 10 -61.5t53 -14.5v-270q-18 -4 -114 -4q-76 0 -115 27.5t-49 87.5q-37 -61 -96.5 -92t-176.5 -31 q-147 0 -212.5 92t-65.5 274zM299 379q0 -80 20.5 -119t77.5 -39q74 0 101.5 50.5t27.5 152.5v141h-37q-115 0 -152.5 -36.5t-37.5 -149.5z" />
<glyph unicode="b" horiz-adv-x="927" d="M72 8v1555h274v-480q35 55 91.5 76t156.5 21q125 0 197 -78q63 -66 80.5 -184.5t17.5 -335.5q0 -221 -19.5 -341t-89.5 -184q-69 -69 -198 -69q-98 0 -155.5 17.5t-94.5 70.5l-39 -84zM348 569q0 -195 26.5 -265.5t112.5 -70.5q76 0 98.5 69t22.5 267q0 201 -22.5 271.5 t-98.5 70.5q-86 0 -112.5 -71.5t-26.5 -270.5z" />
<glyph unicode="c" horiz-adv-x="720" d="M39 582q0 182 22.5 299.5t88.5 189.5q98 109 292 109q168 0 263 -56l-119 -239q-64 26 -115 26h-4q-78 0 -110.5 -73.5t-32.5 -264.5q0 -193 32.5 -266.5t114.5 -73.5q51 0 131 37l111 -217q-111 -67 -281 -67q-172 0 -266 88q-76 68 -101.5 190.5t-25.5 317.5z" />
<glyph unicode="d" horiz-adv-x="929" d="M41 584q0 219 19.5 339.5t89.5 186.5q76 70 198 70q88 0 143.5 -17.5t90.5 -70.5v471h276v-1553l-229 -14l-19 106q-35 -70 -102.5 -94t-171.5 -24q-121 0 -195 77q-63 66 -81.5 188t-18.5 335zM322 575q0 -199 22 -270.5t98 -71.5q86 0 113 72t27 270q0 195 -27 265.5 t-113 70.5q-76 0 -98 -69.5t-22 -266.5z" />
<glyph unicode="e" horiz-adv-x="847" d="M39 582q0 190 22.5 302.5t88.5 184.5q100 111 294 111q186 0 267 -93q63 -74 81 -220q12 -100 12 -259q0 -73 -3 -157h-494q8 -127 43 -173.5t121 -46.5q117 0 250 54l84 -232q-176 -69 -373 -69q-174 0 -268 88q-74 72 -99.5 194.5t-25.5 315.5zM305 674h254 q-2 143 -23.5 194.5t-93.5 51.5q-74 0 -103.5 -54.5t-33.5 -191.5z" />
<glyph unicode="f" horiz-adv-x="641" d="M20 911v248h140v90q0 168 87 243t288 75q57 0 98 -4v-250h-82q-74 -2 -95.5 -22.5t-21.5 -78.5v-53h199v-248h-199v-911h-274v911h-140z" />
<glyph unicode="g" d="M8 -59q0 186 185 239q-70 43 -70 148q0 98 63 161q-129 86 -129 304q0 387 379 387q72 0 158 -19l231 111l37 -225h-149v-9q106 -72 106 -254q0 -356 -383 -356q-33 0 -86 4q-4 -10 -4 -31q0 -35 21.5 -49t78.5 -14q246 0 343.5 -68.5t97.5 -226.5q0 -367 -484 -367 q-395 0 -395 265zM279 0q0 -59 36.5 -92t102.5 -33q194 0 194 140q0 64 -48 87t-146 23q-139 0 -139 -125zM328 780q0 -84 25.5 -125t86.5 -41q109 0 109 166q0 84 -24.5 124t-84.5 40q-61 0 -86.5 -40t-25.5 -124z" />
<glyph unicode="h" horiz-adv-x="927" d="M72 0v1563h274v-482q70 98 252 99q135 0 201 -80q63 -80 63 -271v-829h-278v721q0 115 -20.5 152.5t-80.5 37.5q-82 0 -108.5 -52t-26.5 -175v-684h-276z" />
<glyph unicode="i" horiz-adv-x="436" d="M80 0v1159h276v-1159h-276zM80 1251v283h276v-283h-276z" />
<glyph unicode="j" horiz-adv-x="436" d="M12 -70q45 0 56.5 18.5t11.5 78.5v1132h276v-1159q0 -188 -74.5 -249.5t-269.5 -61.5v241zM80 1251v283h276v-283h-276z" />
<glyph unicode="k" horiz-adv-x="870" d="M72 0v1563h268v-871l219 467h285l-238 -467l260 -692h-291l-153 412l-82 -166v-246h-268z" />
<glyph unicode="l" horiz-adv-x="436" d="M80 0v1563h278v-1563h-278z" />
<glyph unicode="m" horiz-adv-x="1409" d="M72 0v1145l229 14l21 -98q29 61 89 90t177 29q174 0 227 -129q55 129 272 129q129 0 195 -78q68 -82 68 -273v-829h-279v721q0 115 -20.5 152.5t-77.5 37.5q-78 0 -101.5 -51t-23.5 -176v-684h-279v721q0 115 -19.5 152.5t-76.5 37.5q-78 0 -101.5 -51t-23.5 -176v-684 h-276z" />
<glyph unicode="n" horiz-adv-x="927" d="M72 0v1145l229 14l21 -98q55 119 276 119q135 0 201 -80q63 -80 63 -271v-829h-278v721q0 115 -20.5 152.5t-80.5 37.5q-82 0 -108.5 -52t-26.5 -175v-684h-276z" />
<glyph unicode="o" horiz-adv-x="903" d="M39 582q0 182 22.5 299.5t92.5 191.5q102 106 299 107q195 0 299 -109q70 -74 91 -190.5t21 -298.5q0 -184 -23.5 -304t-97.5 -192q-102 -102 -290 -102q-190 0 -289 98q-76 72 -100.5 191.5t-24.5 308.5zM317 571.5q0 -96.5 4.5 -149.5t16.5 -101.5t41 -68t74 -19.5 q84 0 107.5 75t23.5 263.5t-23.5 264t-107.5 75.5q-45 0 -73 -19.5t-41 -67.5t-17.5 -102t-4.5 -150.5z" />
<glyph unicode="p" horiz-adv-x="929" d="M72 -311v1456l229 14l21 -98q57 119 272 119q125 0 197 -78q63 -66 80.5 -184.5t17.5 -335.5q0 -221 -19.5 -341t-89.5 -184q-73 -69 -195 -69h-3q-88 0 -143.5 16t-90.5 70v-385h-276zM348 569q0 -195 26.5 -265.5t112.5 -70.5q76 0 98.5 69t22.5 267q0 201 -22.5 271.5 t-98.5 70.5q-86 0 -112.5 -71.5t-26.5 -270.5z" />
<glyph unicode="q" horiz-adv-x="929" d="M41 584q0 219 19.5 339.5t89.5 186.5q76 70 198 70q100 0 158.5 -18.5t95.5 -76.5l37 76l219 -14v-1458h-276v405q-31 -63 -89.5 -84.5t-156.5 -21.5q-125 0 -195 73q-63 66 -81.5 188t-18.5 335zM322 575q0 -199 22 -270.5t98 -71.5q86 0 113 72t27 270q0 195 -27 265.5 t-113 70.5q-76 0 -98 -69.5t-22 -266.5z" />
<glyph unicode="r" horiz-adv-x="632" d="M72 0v1145l229 14l25 -127q49 127 233 139l57 -280q-150 -2 -208 -53.5t-58 -171.5v-666h-278z" />
<glyph unicode="s" horiz-adv-x="755" d="M0 82l135 209q86 -55 193 -55q66 0 93.5 20t27.5 72q0 39 -42 76.5t-102.5 73.5t-120 79t-101.5 113.5t-42 156.5q0 182 101.5 267.5t271.5 85.5q168 0 299 -74l-127 -234q-70 41 -154 41q-115 0 -115 -84q0 -37 42 -71.5t101.5 -68.5t119 -77t101.5 -115.5t42 -162.5 q0 -158 -98 -253t-297 -95q-178 0 -328 96z" />
<glyph unicode="t" horiz-adv-x="671" d="M16 911v248h148l41 236l223 55v-291h193v-248h-193v-555q0 -59 18.5 -80.5t85.5 -21.5h89v-254q-37 -4 -127 -4q-203 0 -272.5 72.5t-69.5 263.5v579h-136z" />
<glyph unicode="u" horiz-adv-x="923" d="M66 336v823h278v-735q0 -115 20.5 -153t79.5 -38q82 0 106.5 50.5t24.5 175.5v700h277v-1149l-229 -14l-19 106q-55 -116 -274 -116q-135 0 -199 80q-65 77 -65 264v6z" />
<glyph unicode="v" horiz-adv-x="849" d="M0 1159h291l141 -772l143 772h275l-270 -1169h-310z" />
<glyph unicode="w" horiz-adv-x="1222" d="M16 1159h273l90 -713l131 713h225l131 -713l90 713h252l-202 -1169h-261l-133 696l-125 -696h-268z" />
<glyph unicode="x" horiz-adv-x="839" d="M0 0l266 610l-248 549h295l129 -287l117 287h260l-248 -573l267 -586h-295l-150 328l-133 -328h-260z" />
<glyph unicode="y" horiz-adv-x="831" d="M0 1159h279l137 -702l139 702h274l-311 -1237q-35 -139 -106.5 -187t-218.5 -50q-88 0 -107 4v243h88q55 2 74.5 10.5t27.5 32.5l11 41z" />
<glyph unicode="z" horiz-adv-x="718" d="M14 0v182l346 729h-325v248h657v-186l-350 -744h365v-229h-693z" />
<glyph unicode="{" horiz-adv-x="802" d="M88 504v244q109 0 141.5 16t30.5 80q0 47 -32.5 217t-34.5 225q-6 276 282 277h219v-238h-102q-61 0 -88 -23.5t-25 -84.5q0 -39 29 -199t31 -227q4 -127 -97 -164q100 -43 97 -166q-2 -66 -31 -230.5t-29 -205.5q-2 -59 24.5 -85t88.5 -26h102v-225h-219 q-289 0 -282 276q2 55 34.5 224t32.5 217q2 66 -30.5 82t-141.5 16z" />
<glyph unicode="|" horiz-adv-x="565" d="M141 -311v1874h281v-1874h-281z" />
<glyph unicode="}" horiz-adv-x="802" d="M106 -86h105q119 0 113 111q0 41 -29 204.5t-31 231.5q-4 123 96 166q-100 37 -96 164q2 68 31 228.5t29 197.5q2 61 -25 84.5t-88 23.5h-105v238h222q287 0 280 -277q-2 -55 -33.5 -225t-31.5 -217q-2 -63 30.5 -79.5t141.5 -16.5v-244q-111 0 -142.5 -16.5t-29.5 -81.5 q0 -47 31.5 -216.5t33.5 -224.5q6 -276 -280 -276h-222v225z" />
<glyph unicode="~" horiz-adv-x="792" d="M51 788q39 123 92.5 178.5t128.5 55.5q41 0 113 -30.5t86 -30.5q27 0 41 14t29 59l200 -67q-41 -123 -94 -178.5t-129 -55.5q-39 0 -110.5 31t-88.5 31q-27 0 -39 -14.5t-26 -59.5z" />
<glyph unicode="&#xa1;" horiz-adv-x="581" d="M137 1176v342h312v-342h-312zM139 0l25 1057h254l22 -1057h-301z" />
<glyph unicode="&#xa2;" horiz-adv-x="770" d="M57 582q0 182 22.5 299.5t88.5 189.5q53 59 139 86v168h230v-149q111 -8 186 -52l-115 -231q-68 27 -123 27q-76 0 -109.5 -77t-33.5 -270q0 -195 34 -271.5t113 -76.5q55 0 136 37l106 -209q-78 -49 -194 -61v-185h-230v197q-74 25 -123 70q-76 68 -101.5 190.5 t-25.5 317.5z" />
<glyph unicode="&#xa3;" horiz-adv-x="952" d="M37 242q111 8 148.5 33.5t37.5 86.5q0 70 -37 277h-147v213h108q-31 197 -30 268q0 373 381 373q205 0 356 -107l-145 -217q-100 63 -185 64q-129 0 -129 -137q0 -76 25 -244h225v-213h-194q29 -221 28 -281q0 -57 -10 -114q57 -14 106 -15q57 0 77 34t20 108v92h243 v-109q0 -195 -69.5 -277.5t-233.5 -82.5q-147 0 -260 69q-88 -57 -297 -69z" />
<glyph unicode="&#xa4;" horiz-adv-x="987" d="M35 477v203h155v92h-155v203h162q23 276 133 397q113 123 332 123q176 0 303 -70l-134 -239q-82 39 -153 39q-90 0 -137 -56.5t-64 -193.5h258v-203h-268v-92h268v-203h-256q18 -127 64.5 -179t134.5 -52q68 0 170 51l129 -227q-129 -86 -313 -86q-211 0 -324 112 q-113 111 -139 381h-166z" />
<glyph unicode="&#xa5;" horiz-adv-x="968" d="M14 1479h293l178 -617l179 617h290l-313 -852h223v-203h-248v-92h248v-203h-248v-129h-266v129h-248v203h248v92h-248v203h222z" />
<glyph unicode="&#xa6;" horiz-adv-x="565" d="M141 -311v772h281v-772h-281zM141 791v772h281v-772h-281z" />
<glyph unicode="&#xa7;" horiz-adv-x="1564" d="M47 1214v230q119 0 191 35h161v-994h-245v750q-47 -20 -107 -21zM330 0l547 1479h231l-547 -1479h-231zM965 930q106 74 262 74q137 0 200.5 -62.5t63.5 -191.5q0 -66 -30.5 -135.5t-57.5 -105.5t-82 -103q-104 -139 -107 -218h273v-188h-520l2 94q10 207 161 410 q12 18 38 50t38.5 48t27.5 41t21.5 43.5t6.5 36.5q0 66 -74 65q-61 0 -121 -36z" />
<glyph unicode="&#xa8;" horiz-adv-x="792" d="M111 1251v260h237v-260h-237zM442 1251v260h240v-260h-240z" />
<glyph unicode="&#xa9;" horiz-adv-x="1075" d="M47 760q0 233 29.5 390t113.5 253q121 135 347 135q227 0 350 -139q84 -96 112.5 -252t28.5 -387q0 -246 -32.5 -408t-131.5 -254q-120 -114 -327 -114q-201 0 -324 112q-98 94 -132 256t-34 408zM160 759.5q0 -102.5 5 -179t17.5 -158.5t39 -137.5t67.5 -102.5 t103.5 -69.5t144.5 -22.5q100 0 170.5 36t110.5 91t63.5 148.5t30 181.5t6.5 213t-6.5 213t-30 181t-63.5 148.5t-110.5 91.5t-170.5 36q-82 0 -144.5 -23t-103.5 -70t-67.5 -102t-39 -137t-17.5 -159t-5 -179.5zM264 756q0 94 5 158.5t23.5 132t50.5 107.5t89 65.5 t137 25.5q119 0 195 -45l-86 -160q-43 25 -109 25q-76 0 -97 -60.5t-21 -250.5q0 -188 22.5 -251t95.5 -63q63 0 121 35l82 -151q-84 -56 -203 -56q-96 0 -159.5 35t-93 105.5t-41 149.5t-11.5 198z" />
<glyph unicode="&#xaa;" horiz-adv-x="1720" d="M66 1415q106 74 262 74q137 0 200.5 -62.5t63.5 -191.5q0 -66 -31 -135.5t-57.5 -105.5t-81.5 -103q-104 -139 -107 -217h273v-189h-520l2 95q10 207 161 409q12 18 38 50t38 48.5t27.5 41t21.5 43t6 36.5q0 66 -73 66q-61 0 -121 -37zM471 0l547 1479h233l-546 -1479 h-234zM1104 49l94 168q74 -39 131 -39t82 31t25 102.5t-32 93t-136 21.5v188q90 0 119.5 20.5t29.5 76.5q0 51 -20.5 69.5t-73.5 18.5q-49 0 -119 -31l-88 180q86 55 258 56q270 0 271 -236q0 -94 -20.5 -145.5t-72.5 -75.5q66 -25 89.5 -80t23.5 -176q0 -309 -297 -309 q-172 0 -264 67z" />
<glyph unicode="&#xab;" horiz-adv-x="1085" d="M92 578l203 581h244l-185 -581l185 -578h-244zM510 578l203 581h243l-184 -581l184 -578h-243z" />
<glyph unicode="&#xac;" horiz-adv-x="1437" d="M74 760q0 -293 184 -514q6 6 16 14q-180 217 -180 499.5t178 500.5l-14 12q-184 -221 -184 -512zM228 759.5q0 -231.5 147 -411.5l14 14q-141 170 -141 398q0 225 141 395q-4 4 -9 8t-7 6q-145 -178 -145 -409.5zM336 164q221 -199 516 -199t514 199l-14 14 q-215 -193 -500 -192q-287 0 -502 194zM338 1356l14 -17q215 195 500 195q287 0 502 -195l14 17q-221 199 -516 198.5t-514 -198.5zM350 759.5q0 -184.5 117 -327.5l14 14q-111 133 -110 314q0 176 110 313q-2 2 -8 7t-8 7q-115 -143 -115 -327.5zM440 281 q174 -158 412 -158q233 0 410 156q-2 4 -7.5 8t-7.5 8q-168 -152 -395 -152q-225 0 -397 152l-4 -4q-4 -2 -9 -6zM440 1239l15 -14q172 152 397 151q231 1 397 -153l15 16q-178 158 -412 158t-412 -158zM449 760q0 -147 92 -262q4 2 8 7t8 7q-88 109 -88 248t88 248 q-4 2 -8 7t-8 7q-92 -115 -92 -262zM522 373q142 -125 330 -125q190 0 328 125q-2 4 -7.5 8t-7.5 8q-131 -121 -313 -121t-315 121zM524 1147l15 -14q135 119 313 118q182 0 315 -121q10 10 15 17q-141 125 -330 125q-186 0 -328 -125zM526 760q0 -117 72 -209q6 4 16 14 q-68 88 -67.5 194.5t67.5 194.5l-14 15q-74 -90 -74 -209zM588 449q117 -101 264 -101q152 0 262 98q-2 4 -7 8.5t-7 8.5q-104 -94 -247.5 -94t-250.5 94zM590 760q0 -94 57 -168q4 2 8 7t9 7q-53 70 -53.5 154t51.5 151l-15 15q-57 -70 -57 -166zM590 1073l14 -16 q104 94 247.5 94t250.5 -94l12 14q-111 100 -262.5 100t-261.5 -98zM641 506q94 -78 211 -78t209 78q-8 12 -12 16q-88 -74 -197 -73.5t-197 73.5zM641 760q0 -74 43 -133l16 16q-39 51 -38 117q0 68 38 119q-10 10 -16 14q-43 -59 -43 -133zM641 1014l14 -17q88 74 197 74 q113 0 197 -74l12 15q-90 80 -209 80q-121 0 -211 -78zM682 553q72 -61 170 -61q94 0 168 63l-14 14q-68 -57 -154 -57q-84 0 -156 57zM682 759.5q0 -59.5 33 -104.5q10 10 16 15q-29 41 -29 90t29 90q-2 2 -8 7t-8 7q-33 -45 -33 -104.5zM684 965l14 -15q68 57 154 57.5 t154 -57.5l14 17q-72 61 -168 61q-94 0 -168 -63zM717 592q59 -49 135 -49q74 0 133 49q-2 2 -7 8t-7 8q-51 -45 -119 -45q-70 0 -121 45zM717 928l16 -17q51 45 119 45t119 -45l16 17q-59 49 -135 49t-135 -49zM720 760q0 -43 25 -78l15 14q-18 33 -18.5 64t18.5 63l-15 15 q-25 -35 -25 -78zM743 623q50 -39 109 -39q61 0 106 39l-14 16q-41 -35 -92 -35q-49 0 -94 35zM745 897l15 -16q39 35 92 34.5t92 -34.5q6 8 14 16q-45 39 -106 39t-107 -39zM760 760q0 -26 14 -51l12 10q-10 20 -10 40.5t10 41.5q-4 4 -12 10q-14 -25 -14 -51zM770 653 q39 -28 82 -28q45 0 80 28l-14 15q-31 -25 -66 -25q-33 0 -68 25zM772 866l14 -14q31 25 66 25q37 0 66 -25q4 6 12 14q-35 29 -78 29q-45 0 -80 -29zM797 682q24 -18 55 -18q33 0 53 18l-10 12q-16 -14 -43 -14q-20 0 -43 14q-8 -10 -12 -12zM799 838l10 -13q16 14 43 15 q20 0 43 -15q4 6 10 13q-20 18 -53 18t-53 -18zM827 760q0 -10 8.5 -18.5t16.5 -8.5t16.5 8.5t8.5 18.5t-8.5 18t-16.5 8t-16.5 -8t-8.5 -18zM918 719q4 -4 12 -10q14 25 14 51t-14 51l-12 -10q10 -20 10 -41t-10 -41zM942 696q6 -4 16 -14q25 35 25 78t-25 78l-16 -15 q20 -31 20.5 -63.5t-20.5 -63.5zM973 668q8 -7 14 -15q35 47 35 106.5t-35 104.5l-4 -4q-2 -4 -6 -8l-4 -2q29 -39 28.5 -90t-28.5 -92zM1004 641q10 -10 16 -14q43 63 43 133q0 76 -45 133l-14 -14q39 -51 38.5 -119t-38.5 -119zM1040 913q53 -70 53.5 -153.5t-51.5 -151.5 l15 -14q57 70 57 166q0 94 -57 168zM1087 954q70 -86 70 -194q0 -106 -67 -195q4 -2 8 -7t8 -7q72 92 72 209q0 119 -74 209zM1147 512q6 -4 16 -14q92 115 92 262t-92 262l-16 -14q88 -109 88 -248t-88 -248zM1221 446l16 -14q117 139 117 327.5t-117 327.5l-16 -14 q113 -131 112 -313q0 -178 -112 -314zM1313 1155q143 -170 143 -395q0 -223 -141 -398q2 -2 7 -6t7 -6q147 176 147.5 409.5t-147.5 409.5zM1430 260l16 -14q184 223 184 514q0 293 -184 514l-16 -14q180 -217 180 -500t-180 -500z" />
<glyph unicode="&#xad;" horiz-adv-x="561" d="M47 555v262h465v-262h-465z" />
<glyph unicode="&#xae;" d="M66 932q0 113 7 190.5t29.5 162.5t62.5 135t110.5 84t171 34t172 -34t112.5 -85t63.5 -136t28.5 -163t6 -188q0 -113 -7 -193t-29.5 -162.5t-63.5 -133t-113 -83t-170 -34.5q-98 0 -168.5 32.5t-111.5 84t-63.5 134t-29.5 163.5t-7 192zM154 932q0 -98 5 -167 t22.5 -140.5t48 -114.5t85.5 -70.5t131 -27.5q78 0 132.5 27.5t86 70.5t49 114.5t22.5 140.5t5 167q0 96 -5 164.5t-22.5 140.5t-49 116t-86 71.5t-132.5 27.5q-76 0 -131 -27.5t-85.5 -71.5t-48 -116t-22.5 -140.5t-5 -164.5zM260 582v698h193q109 0 150.5 -58.5 t41.5 -177.5q0 -154 -84 -206l80 -256h-133l-70 225h-47v-225h-131zM391 915h49q39 0 54.5 27t15.5 94q0 70 -14.5 96.5t-55.5 26.5h-49v-244z" />
<glyph unicode="&#xaf;" horiz-adv-x="792" d="M94 1241v244h604v-244h-604z" />
<glyph unicode="&#xb0;" horiz-adv-x="780" d="M53 1001.5q0 116.5 12.5 196.5t46 151.5t103.5 107.5t174.5 36t174 -36t104 -107.5t47 -151.5t12.5 -196.5t-12.5 -196.5t-47 -151.5t-104 -107.5t-174 -36t-174.5 36t-103.5 107.5t-46 151.5t-12.5 196.5zM283 989q0 -162 18 -222t88 -60t89.5 61t19.5 221 q0 158 -19.5 219.5t-89.5 61.5t-88 -60.5t-18 -220.5z" />
<glyph unicode="&#xb1;" horiz-adv-x="1564" d="M41 1276v203h557v-170q-104 -174 -159.5 -364.5t-57.5 -477.5h-231q0 260 51 455q43 184 141 354h-301zM336 0l547 1479h231l-547 -1479h-231zM924 285q0 111 22.5 174t91.5 94q-51 31 -68.5 80t-17.5 139q0 111 64 180q70 70 209 70q147 0 213 -70q61 -68 61 -180 q0 -88 -18.5 -139t-69.5 -80q76 -31 97.5 -92.5t21.5 -175.5q0 -160 -84 -236q-74 -67 -221 -67q-145 0 -219 67q-82 76 -82 236zM1145 309q0 -84 14.5 -118.5t65.5 -34.5q53 0 68.5 33.5t15.5 119.5t-15.5 122t-68.5 36q-51 0 -65.5 -36t-14.5 -122zM1165 731.5 q0 -65.5 11.5 -92.5t48.5 -27q39 0 51 28t12 91q0 66 -12 90.5t-51 24.5q-37 0 -48.5 -24.5t-11.5 -90z" />
<glyph unicode="&#xb2;" horiz-adv-x="741" d="M102 1450q106 74 263 74q137 0 200.5 -62.5t63.5 -191.5q0 -66 -31 -135.5t-57.5 -105.5t-81.5 -103q-104 -139 -107 -217h273v-189h-521l2 94q10 207 162 410q12 18 38 50t38 48.5t27.5 41t21.5 43t6 36.5q0 66 -73 66q-61 0 -121 -37z" />
<glyph unicode="&#xb3;" horiz-adv-x="759" d="M94 567l94 168q74 -39 131.5 -39t82 31t24.5 102.5t-32 93t-136 21.5v189q90 0 120 20.5t30 75.5q0 51 -20.5 69.5t-74.5 18.5q-49 0 -118 -31l-89 180q86 55 259 56q270 0 270 -236q0 -94 -20.5 -145t-71.5 -76q66 -25 89 -80t23 -176q0 -309 -297 -309q-172 0 -264 67z " />
<glyph unicode="&#xb4;" horiz-adv-x="792" d="M150 1427l446 136l57 -236l-454 -92z" />
<glyph unicode="&#xb6;" horiz-adv-x="948" d="M53 981q0 252 98.5 376t327.5 124h377v-1481h-258v483h-84v-483h-260v528q-201 96 -201 453zM328 963q0 -143 36 -202t132 -59h102v527h-98q-100 0 -136 -58.5t-36 -207.5z" />
<glyph unicode="&#xb7;" horiz-adv-x="452" d="M72 573v353h309v-353h-309z" />
<glyph unicode="&#xb8;" horiz-adv-x="792" d="M209 -399l57 143q72 -29 121 -29q45 0 61.5 17.5t16.5 56.5q0 43 -24.5 56.5t-88.5 9.5l-43 36l21 123h151l-12 -73q82 2 126 -33t44 -137q0 -115 -56 -163t-165 -48q-119 0 -209 41z" />
<glyph unicode="&#xb9;" horiz-adv-x="620" d="M104 1253v230q119 0 189 35h162v-994h-244v750q-45 -20 -107 -21z" />
<glyph unicode="&#xba;" horiz-adv-x="819" d="M78 1010q0 147 18.5 242.5t73.5 154.5q86 86 242 86q160 0 241 -88q55 -59 72.5 -153.5t17.5 -241.5q0 -150 -19 -245t-79 -155q-81 -82 -233 -82q-150 0 -234 80q-61 57 -80.5 153.5t-19.5 248.5zM123 240v200h577v-200h-577zM303 1003.5q0 -151.5 19.5 -212t89.5 -60.5 q68 0 87 60.5t19 212t-19.5 212t-86.5 60.5q-70 0 -89.5 -60.5t-19.5 -212z" />
<glyph unicode="&#xbb;" horiz-adv-x="1513" d="M47 1214v230q119 0 191 35h161v-994h-245v750q-47 -20 -107 -21zM330 0l547 1479h231l-547 -1479h-231zM838 180v180l264 635h231l-258 -622h119l35 159h174v-159h82v-193h-82v-180h-213v180h-352z" />
<glyph unicode="&#xbc;" horiz-adv-x="1513" d="M47 1214v230q119 0 191 35h161v-994h-245v750q-47 -20 -107 -21zM330 0l547 1479h231l-547 -1479h-231zM838 180v180l264 635h231l-258 -622h119l35 159h174v-159h82v-193h-82v-180h-213v180h-352z" />
<glyph unicode="&#xbd;" horiz-adv-x="1564" d="M47 1214v230q119 0 191 35h161v-994h-245v750q-47 -20 -107 -21zM330 0l547 1479h231l-547 -1479h-231zM965 930q106 74 262 74q137 0 200.5 -62.5t63.5 -191.5q0 -66 -30.5 -135.5t-57.5 -105.5t-82 -103q-104 -139 -107 -218h273v-188h-520l2 94q10 207 161 410 q12 18 38 50t38.5 48t27.5 41t21.5 43.5t6.5 36.5q0 66 -74 65q-61 0 -121 -36z" />
<glyph unicode="&#xbe;" horiz-adv-x="1646" d="M53 545l94 168q74 -39 131.5 -39t82 30.5t24.5 102.5t-31.5 93.5t-136.5 21.5v188q90 0 120 20.5t30 75.5q0 51 -20.5 69.5t-74.5 18.5q-49 0 -118 -30l-88 180q86 55 258 55q270 0 270 -235q0 -94 -20.5 -145.5t-71.5 -76.5q66 -25 89 -80t23 -176q0 -309 -297 -309 q-172 0 -264 68zM461 0l547 1479h233l-547 -1479h-233zM969 180v180l264 635h231l-258 -622h119l35 159h172v-159h84v-193h-84v-180h-211v180h-352z" />
<glyph unicode="&#xbf;" horiz-adv-x="937" d="M106 326q0 70 25 142.5t48.5 115.5t72.5 121q66 102 94.5 185t18.5 179h270q12 -88 -12.5 -180t-53 -144.5t-84.5 -140.5q-104 -162 -104 -242q0 -121 131 -120q88 0 184 69l142 -215q-160 -114 -359 -114q-373 0 -373 344zM344 1208v310h311v-310h-311z" />
<glyph unicode="&#xc0;" horiz-adv-x="1038" d="M12 0l367 1526h280l369 -1526h-293l-49 240h-348l-49 -240h-277zM266 1657l58 236l444 -136l-45 -192zM395 473h236l-119 565z" />
<glyph unicode="&#xc1;" horiz-adv-x="1038" d="M12 0l367 1526h280l369 -1526h-293l-49 240h-348l-49 -240h-277zM273 1757l446 136l57 -236l-454 -92zM395 473h236l-119 565z" />
<glyph unicode="&#xc2;" horiz-adv-x="1038" d="M12 0l367 1526h280l369 -1526h-293l-49 240h-348l-49 -240h-277zM201 1712l274 185h88l277 -185l-82 -149l-240 100l-235 -100zM395 473h236l-119 565z" />
<glyph unicode="&#xc3;" horiz-adv-x="1038" d="M12 0l367 1526h280l369 -1526h-293l-49 240h-348l-49 -240h-277zM174 1637q39 123 92.5 178t128.5 55q41 0 113 -30.5t86 -30.5q27 0 41 14t29 59l200 -67q-41 -123 -94 -178.5t-129 -55.5q-39 0 -110.5 31t-88.5 31q-27 0 -39 -14.5t-26 -59.5zM395 473h236l-119 565z " />
<glyph unicode="&#xc4;" horiz-adv-x="1038" d="M12 0l367 1526h280l369 -1526h-293l-49 240h-348l-49 -240h-277zM234 1581v260h237v-260h-237zM395 473h236l-119 565zM565 1581v260h240v-260h-240z" />
<glyph unicode="&#xc5;" horiz-adv-x="1038" d="M12 0l367 1526h280l369 -1526h-293l-49 240h-348l-49 -240h-277zM309 1649q0 254 209 253q211 0 211 -253q0 -248 -211 -248q-209 0 -209 248zM395 473h236l-119 565zM445 1649q-1 -119 73 -119q76 0 76 119q0 121 -76 120q-74 0 -73 -120z" />
<glyph unicode="&#xc6;" horiz-adv-x="1411" d="M10 0l471 1518h871v-273h-420v-352h385v-248h-385v-385h426v-260h-699v317h-282l-96 -317h-271zM451 559h208v682z" />
<glyph unicode="&#xc7;" horiz-adv-x="847" d="M47 760q0 256 28.5 406.5t114.5 242.5q117 127 340 127q184 0 312 -72l-137 -245q-82 39 -158 38q-123 0 -166 -105t-43 -398q0 -289 44 -395.5t165 -106.5q66 0 176 53l131 -233q-136 -88 -322 -88q-215 0 -331 116q-90 86 -122 244t-32 416zM238 -399l57 143 q72 -29 121 -29q45 0 61.5 17.5t16.5 56.5q0 43 -24.5 56.5t-88.5 9.5l-43 36l21 123h151l-12 -73q82 2 126 -33t44 -137q0 -115 -56 -163t-165 -48q-119 0 -209 41z" />
<glyph unicode="&#xc8;" horiz-adv-x="854" d="M88 0v1518h709v-273h-422v-352h385v-248h-385v-385h426v-260h-713zM174 1657l58 236l444 -136l-45 -192z" />
<glyph unicode="&#xc9;" horiz-adv-x="854" d="M88 0v1518h709v-273h-422v-352h385v-248h-385v-385h426v-260h-713zM181 1757l446 136l57 -236l-454 -92z" />
<glyph unicode="&#xca;" horiz-adv-x="854" d="M88 0v1518h709v-273h-422v-352h385v-248h-385v-385h426v-260h-713zM109 1712l274 185h88l277 -185l-82 -149l-240 100l-235 -100z" />
<glyph unicode="&#xcb;" horiz-adv-x="854" d="M88 0v1518h709v-273h-422v-352h385v-248h-385v-385h426v-260h-713zM142 1581v260h237v-260h-237zM473 1581v260h240v-260h-240z" />
<glyph unicode="&#xcc;" horiz-adv-x="491" d="M-7 1657l58 236l444 -136l-45 -192zM102 0v1518h287v-1518h-287z" />
<glyph unicode="&#xcd;" horiz-adv-x="491" d="M0 1757l446 136l57 -236l-454 -92zM102 0v1518h287v-1518h-287z" />
<glyph unicode="&#xce;" horiz-adv-x="491" d="M-72 1712l274 185h88l277 -185l-82 -149l-240 100l-235 -100zM102 0v1518h287v-1518h-287z" />
<glyph unicode="&#xcf;" horiz-adv-x="491" d="M-39 1581v260h237v-260h-237zM102 0v1518h287v-1518h-287zM292 1581v260h240v-260h-240z" />
<glyph unicode="&#xd0;" horiz-adv-x="1040" d="M2 641v242h86v635h399q248 0 367 -123q86 -90 112.5 -239.5t26.5 -395.5q0 -256 -28.5 -409.5t-120.5 -239.5q-117 -111 -363 -111h-393v641h-86zM375 262h114q139 0 175 102.5t36 391.5q0 98 -2 157.5t-9 122t-21.5 96t-38 62.5t-59 40t-87.5 11h-108v-362h160v-242 h-160v-379z" />
<glyph unicode="&#xd1;" horiz-adv-x="1062" d="M88 0v1518h295l326 -803v803h266v-1518h-258l-363 870v-870h-266zM186 1637q39 123 92.5 178t128.5 55q41 0 113 -30.5t86 -30.5q27 0 41 14t29 59l200 -67q-41 -123 -94 -178.5t-129 -55.5q-39 0 -110.5 31t-88.5 31q-27 0 -39 -14.5t-26 -59.5z" />
<glyph unicode="&#xd2;" horiz-adv-x="1071" d="M47 760q0 248 27.5 401.5t115.5 245.5q121 131 345 131q219 0 342 -127q90 -92 118.5 -246.5t28.5 -404.5q0 -258 -29.5 -414t-126.5 -246q-126 -116 -333 -116q-209 0 -332 116q-96 90 -126 246t-30 414zM282 1657l58 236l444 -136l-45 -192zM338 754q0 -96 2 -154.5 t8 -123t19.5 -101.5t35 -69t54 -45t78 -13t78 13t54 45t35 69t19.5 100.5t8 123.5t2 154.5t-2 154t-8 124t-19.5 101t-35 68.5t-54 45.5t-78 13.5t-78 -13.5t-54 -45.5t-35 -68.5t-19.5 -101t-8 -124t-2 -153.5z" />
<glyph unicode="&#xd3;" horiz-adv-x="1071" d="M47 760q0 248 27.5 401.5t115.5 245.5q121 131 345 131q219 0 342 -127q90 -92 118.5 -246.5t28.5 -404.5q0 -258 -29.5 -414t-126.5 -246q-126 -116 -333 -116q-209 0 -332 116q-96 90 -126 246t-30 414zM289 1757l446 136l57 -236l-454 -92zM338 754q0 -96 2 -154.5 t8 -123t19.5 -101.5t35 -69t54 -45t78 -13t78 13t54 45t35 69t19.5 100.5t8 123.5t2 154.5t-2 154t-8 124t-19.5 101t-35 68.5t-54 45.5t-78 13.5t-78 -13.5t-54 -45.5t-35 -68.5t-19.5 -101t-8 -124t-2 -153.5z" />
<glyph unicode="&#xd4;" horiz-adv-x="1071" d="M47 760q0 248 27.5 401.5t115.5 245.5q121 131 345 131q219 0 342 -127q90 -92 118.5 -246.5t28.5 -404.5q0 -258 -29.5 -414t-126.5 -246q-126 -116 -333 -116q-209 0 -332 116q-96 90 -126 246t-30 414zM217 1712l274 185h88l277 -185l-82 -149l-240 100l-235 -100z M338 754q0 -96 2 -154.5t8 -123t19.5 -101.5t35 -69t54 -45t78 -13t78 13t54 45t35 69t19.5 100.5t8 123.5t2 154.5t-2 154t-8 124t-19.5 101t-35 68.5t-54 45.5t-78 13.5t-78 -13.5t-54 -45.5t-35 -68.5t-19.5 -101t-8 -124t-2 -153.5z" />
<glyph unicode="&#xd5;" horiz-adv-x="1071" d="M47 760q0 248 27.5 401.5t115.5 245.5q121 131 345 131q219 0 342 -127q90 -92 118.5 -246.5t28.5 -404.5q0 -258 -29.5 -414t-126.5 -246q-126 -116 -333 -116q-209 0 -332 116q-96 90 -126 246t-30 414zM190 1637q39 123 92.5 178t128.5 55q41 0 113 -30.5t86 -30.5 q27 0 41 14t29 59l200 -67q-41 -123 -94 -178.5t-129 -55.5q-39 0 -110.5 31t-88.5 31q-27 0 -39 -14.5t-26 -59.5zM338 754q0 -96 2 -154.5t8 -123t19.5 -101.5t35 -69t54 -45t78 -13t78 13t54 45t35 69t19.5 100.5t8 123.5t2 154.5t-2 154t-8 124t-19.5 101t-35 68.5 t-54 45.5t-78 13.5t-78 -13.5t-54 -45.5t-35 -68.5t-19.5 -101t-8 -124t-2 -153.5z" />
<glyph unicode="&#xd6;" horiz-adv-x="1071" d="M47 760q0 248 27.5 401.5t115.5 245.5q121 131 345 131q219 0 342 -127q90 -92 118.5 -246.5t28.5 -404.5q0 -258 -29.5 -414t-126.5 -246q-126 -116 -333 -116q-209 0 -332 116q-96 90 -126 246t-30 414zM250 1581v260h237v-260h-237zM338 754q0 -96 2 -154.5t8 -123 t19.5 -101.5t35 -69t54 -45t78 -13t78 13t54 45t35 69t19.5 100.5t8 123.5t2 154.5t-2 154t-8 124t-19.5 101t-35 68.5t-54 45.5t-78 13.5t-78 -13.5t-54 -45.5t-35 -68.5t-19.5 -101t-8 -124t-2 -153.5zM581 1581v260h240v-260h-240z" />
<glyph unicode="&#xd7;" horiz-adv-x="1011" d="M180 547l174 174l-172 174l148 149l174 -174l174 174l151 -149l-174 -174l174 -174l-149 -150l-174 174l-174 -174z" />
<glyph unicode="&#xd8;" horiz-adv-x="1071" d="M47 760q0 248 27.5 401.5t115.5 245.5q121 131 345 131q47 0 86 -6l24 98h197l-39 -160q29 -18 74 -59q90 -92 118.5 -246.5t28.5 -404.5q0 -258 -29.5 -414t-126.5 -246q-127 -117 -333 -116q-47 0 -89 6l-24 -101h-195l37 162q-35 23 -61 49q-96 90 -126 246t-30 414z M330 754q0 -305 24 -394l224 914q-14 2 -43 2q-57 0 -95.5 -22.5t-60 -58.5t-32.5 -108.5t-14 -142t-3 -190.5zM487 236q15 -3 48 -3q47 0 80.5 13.5t56 45.5t36 68.5t19.5 103t8 128t2 162.5q0 301 -26 397z" />
<glyph unicode="&#xd9;" horiz-adv-x="1058" d="M80 479v1039h289v-1026q0 -137 35.5 -191.5t130.5 -54.5q92 0 128.5 54t36.5 192v1026h281v-1039q0 -143 -21.5 -238.5t-87.5 -156.5q-111 -104 -344 -104q-225 0 -335 100q-66 61 -89.5 157.5t-23.5 241.5zM276 1657l58 236l444 -136l-45 -192z" />
<glyph unicode="&#xda;" horiz-adv-x="1058" d="M80 479v1039h289v-1026q0 -137 35.5 -191.5t130.5 -54.5q92 0 128.5 54t36.5 192v1026h281v-1039q0 -143 -21.5 -238.5t-87.5 -156.5q-111 -104 -344 -104q-225 0 -335 100q-66 61 -89.5 157.5t-23.5 241.5zM283 1757l446 136l57 -236l-454 -92z" />
<glyph unicode="&#xdb;" horiz-adv-x="1058" d="M80 479v1039h289v-1026q0 -137 35.5 -191.5t130.5 -54.5q92 0 128.5 54t36.5 192v1026h281v-1039q0 -143 -21.5 -238.5t-87.5 -156.5q-111 -104 -344 -104q-225 0 -335 100q-66 61 -89.5 157.5t-23.5 241.5zM211 1712l274 185h88l277 -185l-82 -149l-240 100l-235 -100z " />
<glyph unicode="&#xdc;" horiz-adv-x="1058" d="M80 479v1039h289v-1026q0 -137 35.5 -191.5t130.5 -54.5q92 0 128.5 54t36.5 192v1026h281v-1039q0 -143 -21.5 -238.5t-87.5 -156.5q-111 -104 -344 -104q-225 0 -335 100q-66 61 -89.5 157.5t-23.5 241.5zM244 1581v260h237v-260h-237zM575 1581v260h240v-260h-240z " />
<glyph unicode="&#xdd;" horiz-adv-x="997" d="M-10 1518h299l213 -650l215 650h291l-367 -1012v-506h-287v512zM252 1757l446 136l57 -236l-454 -92z" />
<glyph unicode="&#xde;" horiz-adv-x="987" d="M88 0l2 1518h283v-201h96q272 0 374.5 -130t102.5 -386q0 -125 -20.5 -216t-71.5 -166t-147.5 -114t-235.5 -39h-98v-266h-285zM373 504h94q111 0 151.5 62.5t40.5 215.5q0 156 -40.5 217.5t-151.5 61.5h-94v-557z" />
<glyph unicode="&#xdf;" horiz-adv-x="1576" d="M47 1214v230q119 0 191 35h159v-994h-243v750q-47 -20 -107 -21zM330 0l547 1479h231l-547 -1479h-231zM961 49l94 168q74 -39 131 -39t81.5 31t24.5 102.5t-31.5 93t-136.5 21.5v188q90 0 120 20.5t30 76.5q0 51 -20.5 69.5t-73.5 18.5q-49 0 -119 -31l-88 180 q86 55 258 56q270 0 270 -236q0 -94 -20.5 -145.5t-71.5 -75.5q66 -25 89.5 -80t23.5 -176q0 -309 -297 -309q-172 0 -264 67z" />
<glyph unicode="&#xe0;" d="M33 354q0 233 101.5 326.5t332.5 93.5h59q-2 80 -21.5 108.5t-82.5 28.5q-119 0 -209 -43l-104 250q135 61 348 62q197 0 276 -88q66 -72 66 -261v-485q0 -47 10 -61.5t53 -14.5v-270q-18 -4 -114 -4q-76 0 -115 27.5t-49 87.5q-37 -61 -96.5 -92t-176.5 -31 q-147 0 -212.5 92t-65.5 274zM196 1327l58 236l444 -136l-45 -192zM299 379q0 -80 20.5 -119t77.5 -39q74 0 101.5 50.5t27.5 152.5v141h-37q-115 0 -152.5 -36.5t-37.5 -149.5z" />
<glyph unicode="&#xe1;" d="M33 354q0 233 101.5 326.5t332.5 93.5h59q-2 80 -21.5 108.5t-82.5 28.5q-119 0 -209 -43l-104 250q135 61 348 62q197 0 276 -88q66 -72 66 -261v-485q0 -47 10 -61.5t53 -14.5v-270q-18 -4 -114 -4q-76 0 -115 27.5t-49 87.5q-37 -61 -96.5 -92t-176.5 -31 q-147 0 -212.5 92t-65.5 274zM203 1427l446 136l57 -236l-454 -92zM299 379q0 -80 20.5 -119t77.5 -39q74 0 101.5 50.5t27.5 152.5v141h-37q-115 0 -152.5 -36.5t-37.5 -149.5z" />
<glyph unicode="&#xe2;" d="M33 354q0 233 101.5 326.5t332.5 93.5h59q-2 80 -21.5 108.5t-82.5 28.5q-119 0 -209 -43l-104 250q135 61 348 62q197 0 276 -88q66 -72 66 -261v-485q0 -47 10 -61.5t53 -14.5v-270q-18 -4 -114 -4q-76 0 -115 27.5t-49 87.5q-37 -61 -96.5 -92t-176.5 -31 q-147 0 -212.5 92t-65.5 274zM131 1382l274 185h88l277 -185l-82 -149l-240 100l-235 -100zM299 379q0 -80 20.5 -119t77.5 -39q74 0 101.5 50.5t27.5 152.5v141h-37q-115 0 -152.5 -36.5t-37.5 -149.5z" />
<glyph unicode="&#xe3;" d="M33 354q0 233 101.5 326.5t332.5 93.5h59q-2 80 -21.5 108.5t-82.5 28.5q-119 0 -209 -43l-104 250q135 61 348 62q197 0 276 -88q66 -72 66 -261v-485q0 -47 10 -61.5t53 -14.5v-270q-18 -4 -114 -4q-76 0 -115 27.5t-49 87.5q-37 -61 -96.5 -92t-176.5 -31 q-147 0 -212.5 92t-65.5 274zM104 1307q39 123 92.5 178t128.5 55q41 0 113 -30.5t86 -30.5q27 0 41 14t29 59l200 -67q-41 -123 -94 -178.5t-129 -55.5q-39 0 -110.5 31t-88.5 31q-27 0 -39 -14.5t-26 -59.5zM299 379q0 -80 20.5 -119t77.5 -39q74 0 101.5 50.5t27.5 152.5 v141h-37q-115 0 -152.5 -36.5t-37.5 -149.5z" />
<glyph unicode="&#xe4;" d="M33 354q0 233 101.5 326.5t332.5 93.5h59q-2 80 -21.5 108.5t-82.5 28.5q-119 0 -209 -43l-104 250q135 61 348 62q197 0 276 -88q66 -72 66 -261v-485q0 -47 10 -61.5t53 -14.5v-270q-18 -4 -114 -4q-76 0 -115 27.5t-49 87.5q-37 -61 -96.5 -92t-176.5 -31 q-147 0 -212.5 92t-65.5 274zM164 1251v260h237v-260h-237zM299 379q0 -80 20.5 -119t77.5 -39q74 0 101.5 50.5t27.5 152.5v141h-37q-115 0 -152.5 -36.5t-37.5 -149.5zM495 1251v260h240v-260h-240z" />
<glyph unicode="&#xe5;" d="M33 354q0 233 101.5 326.5t332.5 93.5h59q-2 80 -21.5 108.5t-82.5 28.5q-119 0 -209 -43l-104 250q135 61 348 62q197 0 276 -88q66 -72 66 -261v-485q0 -47 10 -61.5t53 -14.5v-270q-18 -4 -114 -4q-76 0 -115 27.5t-49 87.5q-37 -61 -96.5 -92t-176.5 -31 q-147 0 -212.5 92t-65.5 274zM239 1473q0 254 209 253q211 0 211 -253q0 -248 -211 -248q-209 0 -209 248zM299 379q0 -80 20.5 -119t77.5 -39q74 0 101.5 50.5t27.5 152.5v141h-37q-115 0 -152.5 -36.5t-37.5 -149.5zM375 1473q-1 -119 73 -119q76 0 76 119q0 121 -76 120 q-74 0 -73 -120z" />
<glyph unicode="&#xe6;" horiz-adv-x="1329" d="M33 354q0 233 101.5 326.5t332.5 93.5h59q-2 80 -21.5 108.5t-82.5 28.5q-127 0 -209 -43l-104 250q127 61 348 62q156 0 231 -66q92 66 238 66q186 0 266 -93q66 -74 83 -220t9 -416h-493q8 -127 43.5 -173.5t119.5 -46.5q96 0 250 54l84 -230q-170 -71 -373 -71 q-162 0 -264 98q-20 20 -39 45q-55 -82 -120.5 -110.5t-180.5 -28.5q-147 0 -212.5 92t-65.5 274zM299 379q0 -80 20.5 -119t77.5 -39q74 0 101.5 50.5t27.5 152.5v141h-37q-115 0 -152.5 -36.5t-37.5 -149.5zM788 674h254q-2 145 -24 195.5t-94 50.5q-74 0 -102.5 -54.5 t-33.5 -191.5z" />
<glyph unicode="&#xe7;" horiz-adv-x="720" d="M39 582q0 182 22.5 299.5t88.5 189.5q98 109 292 109q168 0 263 -56l-119 -239q-66 27 -119 26q-78 0 -110.5 -73.5t-32.5 -264.5q0 -193 32.5 -266.5t114.5 -73.5q51 0 131 37l111 -217q-111 -67 -281 -67q-172 0 -266 88q-76 68 -101.5 190.5t-25.5 317.5zM174 -399 l57 143q72 -29 121 -29q45 0 61.5 17.5t16.5 56.5q0 43 -24.5 56.5t-88.5 9.5l-43 36l21 123h151l-12 -73q82 2 126 -33t44 -137q0 -115 -56 -163t-165 -48q-119 0 -209 41z" />
<glyph unicode="&#xe8;" horiz-adv-x="847" d="M39 582q0 190 22.5 302.5t88.5 184.5q100 111 294 111q186 0 267 -93q63 -74 80.5 -220t9.5 -416h-494q8 -127 43 -173.5t121 -46.5q117 0 250 54l84 -232q-176 -69 -373 -69q-174 0 -268 88q-74 72 -99.5 194.5t-25.5 315.5zM170 1327l58 236l444 -136l-45 -192z M305 674h254q-2 143 -23.5 194.5t-93.5 51.5q-74 0 -103.5 -54.5t-33.5 -191.5z" />
<glyph unicode="&#xe9;" horiz-adv-x="847" d="M39 582q0 190 22.5 302.5t88.5 184.5q100 111 294 111q186 0 267 -93q63 -74 80.5 -220t9.5 -416h-494q8 -127 43 -173.5t121 -46.5q117 0 250 54l84 -232q-176 -69 -373 -69q-174 0 -268 88q-74 72 -99.5 194.5t-25.5 315.5zM177 1427l446 136l57 -236l-454 -92z M305 674h254q-2 143 -23.5 194.5t-93.5 51.5q-74 0 -103.5 -54.5t-33.5 -191.5z" />
<glyph unicode="&#xea;" horiz-adv-x="847" d="M39 582q0 190 22.5 302.5t88.5 184.5q100 111 294 111q186 0 267 -93q63 -74 80.5 -220t9.5 -416h-494q8 -127 43 -173.5t121 -46.5q117 0 250 54l84 -232q-176 -69 -373 -69q-174 0 -268 88q-74 72 -99.5 194.5t-25.5 315.5zM105 1382l274 185h88l277 -185l-82 -149 l-240 100l-235 -100zM305 674h254q-2 143 -23.5 194.5t-93.5 51.5q-74 0 -103.5 -54.5t-33.5 -191.5z" />
<glyph unicode="&#xeb;" horiz-adv-x="847" d="M39 582q0 190 22.5 302.5t88.5 184.5q100 111 294 111q186 0 267 -93q63 -74 80.5 -220t9.5 -416h-494q8 -127 43 -173.5t121 -46.5q117 0 250 54l84 -232q-176 -69 -373 -69q-174 0 -268 88q-74 72 -99.5 194.5t-25.5 315.5zM138 1251v260h237v-260h-237zM305 674h254 q-2 143 -23.5 194.5t-93.5 51.5q-74 0 -103.5 -54.5t-33.5 -191.5zM469 1251v260h240v-260h-240z" />
<glyph unicode="&#xec;" horiz-adv-x="436" d="M-35 1327l58 236l444 -136l-45 -192zM80 0v1159h276v-1159h-276z" />
<glyph unicode="&#xed;" horiz-adv-x="436" d="M-28 1427l446 136l57 -236l-454 -92zM80 0v1159h276v-1159h-276z" />
<glyph unicode="&#xee;" horiz-adv-x="436" d="M-100 1382l274 185h88l277 -185l-82 -149l-240 100l-235 -100zM80 0v1159h276v-1159h-276z" />
<glyph unicode="&#xef;" horiz-adv-x="436" d="M-67 1251v260h237v-260h-237zM80 0v1159h276v-1159h-276zM264 1251v260h240v-260h-240z" />
<glyph unicode="&#xf0;" horiz-adv-x="905" d="M39 565q0 170 19.5 278.5t82.5 172.5q84 90 254 90q123 0 176 -78q-18 88 -49 176l-164 -35v177l97 20q-27 55 -72 121l219 100q53 -66 105 -168l159 35v-176l-94 -21q70 -211 86 -464q6 -84 6 -183q0 -205 -25.5 -330.5t-97.5 -195.5q-98 -100 -290 -100q-184 0 -287 98 q-74 70 -99.5 185.5t-25.5 297.5zM317 555q0 -123 7.5 -183.5t37.5 -99.5t91 -39q84 0 107.5 71t23.5 251t-23.5 251t-107.5 71q-61 0 -91 -39t-37.5 -99.5t-7.5 -183.5z" />
<glyph unicode="&#xf1;" horiz-adv-x="927" d="M72 0v1145l229 14l21 -98q55 119 276 119q135 0 201 -80q63 -80 63 -271v-829h-278v721q0 115 -20.5 152.5t-80.5 37.5q-82 0 -108.5 -52t-26.5 -175v-684h-276zM119 1307q39 123 92.5 178t128.5 55q41 0 113 -30.5t86 -30.5q27 0 41 14t29 59l200 -67 q-41 -123 -94 -178.5t-129 -55.5q-39 0 -110.5 31t-88.5 31q-27 0 -39 -14.5t-26 -59.5z" />
<glyph unicode="&#xf2;" horiz-adv-x="903" d="M39 582q0 182 22.5 299.5t92.5 191.5q102 106 299 107q195 0 299 -109q70 -74 91 -190.5t21 -298.5q0 -184 -23.5 -304t-97.5 -192q-102 -102 -290 -102q-190 0 -289 98q-76 72 -100.5 191.5t-24.5 308.5zM198 1327l58 236l444 -136l-45 -192zM317 571.5 q0 -96.5 4.5 -149.5t16.5 -101.5t41 -68t74 -19.5q84 0 107.5 75t23.5 263.5t-23.5 264t-107.5 75.5q-45 0 -73 -19.5t-41 -67.5t-17.5 -102t-4.5 -150.5z" />
<glyph unicode="&#xf3;" horiz-adv-x="903" d="M39 582q0 182 22.5 299.5t92.5 191.5q102 106 299 107q195 0 299 -109q70 -74 91 -190.5t21 -298.5q0 -184 -23.5 -304t-97.5 -192q-102 -102 -290 -102q-190 0 -289 98q-76 72 -100.5 191.5t-24.5 308.5zM205 1427l446 136l57 -236l-454 -92zM317 571.5 q0 -96.5 4.5 -149.5t16.5 -101.5t41 -68t74 -19.5q84 0 107.5 75t23.5 263.5t-23.5 264t-107.5 75.5q-45 0 -73 -19.5t-41 -67.5t-17.5 -102t-4.5 -150.5z" />
<glyph unicode="&#xf4;" horiz-adv-x="903" d="M39 582q0 182 22.5 299.5t92.5 191.5q102 106 299 107q195 0 299 -109q70 -74 91 -190.5t21 -298.5q0 -184 -23.5 -304t-97.5 -192q-102 -102 -290 -102q-190 0 -289 98q-76 72 -100.5 191.5t-24.5 308.5zM133 1382l274 185h88l277 -185l-82 -149l-240 100l-235 -100z M317 571.5q0 -96.5 4.5 -149.5t16.5 -101.5t41 -68t74 -19.5q84 0 107.5 75t23.5 263.5t-23.5 264t-107.5 75.5q-45 0 -73 -19.5t-41 -67.5t-17.5 -102t-4.5 -150.5z" />
<glyph unicode="&#xf5;" horiz-adv-x="903" d="M39 582q0 182 22.5 299.5t92.5 191.5q102 106 299 107q195 0 299 -109q70 -74 91 -190.5t21 -298.5q0 -184 -23.5 -304t-97.5 -192q-102 -102 -290 -102q-190 0 -289 98q-76 72 -100.5 191.5t-24.5 308.5zM106 1307q39 123 92.5 178t128.5 55q41 0 113 -30.5t86 -30.5 q27 0 41 14t29 59l200 -67q-41 -123 -94 -178.5t-129 -55.5q-39 0 -110.5 31t-88.5 31q-27 0 -39 -14.5t-26 -59.5zM317 571.5q0 -96.5 4.5 -149.5t16.5 -101.5t41 -68t74 -19.5q84 0 107.5 75t23.5 263.5t-23.5 264t-107.5 75.5q-45 0 -73 -19.5t-41 -67.5t-17.5 -102 t-4.5 -150.5z" />
<glyph unicode="&#xf6;" horiz-adv-x="903" d="M39 582q0 182 22.5 299.5t92.5 191.5q102 106 299 107q195 0 299 -109q70 -74 91 -190.5t21 -298.5q0 -184 -23.5 -304t-97.5 -192q-102 -102 -290 -102q-190 0 -289 98q-76 72 -100.5 191.5t-24.5 308.5zM166 1251v260h237v-260h-237zM317 571.5q0 -96.5 4.5 -149.5 t16.5 -101.5t41 -68t74 -19.5q84 0 107.5 75t23.5 263.5t-23.5 264t-107.5 75.5q-45 0 -73 -19.5t-41 -67.5t-17.5 -102t-4.5 -150.5zM497 1251v260h240v-260h-240z" />
<glyph unicode="&#xf7;" horiz-adv-x="1011" d="M121 588v266h770v-266h-770zM371 229v248h272v-248h-272zM371 963v247h272v-247h-272z" />
<glyph unicode="&#xf8;" horiz-adv-x="903" d="M39 582q0 182 22.5 299.5t92.5 191.5q102 106 299 107q39 0 75 -6l27 100h172l-41 -152q35 -20 66 -51q70 -74 91 -190.5t21 -298.5q0 -184 -23.5 -304t-97.5 -192q-102 -102 -290 -102q-29 0 -78 4l-25 -99h-172l39 150q-33 20 -53 43q-76 72 -100.5 191.5t-24.5 308.5z M301 571q0 -178 12 -235l164 590q-4 0 -12 1t-12 1q-98 0 -125 -77t-27 -280zM422 219q11 -2 31 -2q96 0 121.5 77t25.5 277q0 172 -14 240z" />
<glyph unicode="&#xf9;" horiz-adv-x="923" d="M66 336v823h278v-735q0 -115 20.5 -153t79.5 -38q82 0 106.5 50.5t24.5 175.5v700h277v-1149l-229 -14l-19 106q-55 -116 -274 -116q-135 0 -199 80q-66 78 -65 270zM204 1327l58 236l444 -136l-45 -192z" />
<glyph unicode="&#xfa;" horiz-adv-x="923" d="M66 336v823h278v-735q0 -115 20.5 -153t79.5 -38q82 0 106.5 50.5t24.5 175.5v700h277v-1149l-229 -14l-19 106q-55 -116 -274 -116q-135 0 -199 80q-66 78 -65 270zM211 1427l446 136l57 -236l-454 -92z" />
<glyph unicode="&#xfb;" horiz-adv-x="923" d="M66 336v823h278v-735q0 -115 20.5 -153t79.5 -38q82 0 106.5 50.5t24.5 175.5v700h277v-1149l-229 -14l-19 106q-55 -116 -274 -116q-135 0 -199 80q-66 78 -65 270zM139 1382l274 185h88l277 -185l-82 -149l-240 100l-235 -100z" />
<glyph unicode="&#xfc;" horiz-adv-x="923" d="M66 336v823h278v-735q0 -115 20.5 -153t79.5 -38q82 0 106.5 50.5t24.5 175.5v700h277v-1149l-229 -14l-19 106q-55 -116 -274 -116q-135 0 -199 80q-66 78 -65 270zM172 1251v260h237v-260h-237zM503 1251v260h240v-260h-240z" />
<glyph unicode="&#xfd;" horiz-adv-x="831" d="M0 1159h279l137 -702l139 702h274l-311 -1237q-35 -139 -106.5 -187t-218.5 -50q-88 0 -107 4v243h88q55 2 74.5 10.5t27.5 32.5l11 41zM170 1427l446 136l57 -236l-454 -92z" />
<glyph unicode="&#xfe;" horiz-adv-x="929" d="M72 -311v1874h274v-480q35 57 91.5 77t156.5 20q125 0 197 -78q63 -66 80.5 -184.5t17.5 -335.5q0 -221 -19.5 -341t-89.5 -184q-74 -70 -198 -69q-90 0 -144.5 14t-89.5 61v-374h-276zM348 569q0 -195 26.5 -265.5t112.5 -70.5q76 0 98.5 69t22.5 267q0 201 -22.5 271.5 t-98.5 70.5q-86 0 -112.5 -71.5t-26.5 -270.5z" />
<glyph unicode="&#xff;" horiz-adv-x="831" d="M0 1159h279l137 -702l139 702h274l-311 -1237q-35 -139 -106.5 -187t-218.5 -50q-88 0 -107 4v243h88q55 2 74.5 10.5t27.5 32.5l11 41zM131 1251v260h237v-260h-237zM462 1251v260h240v-260h-240z" />
<glyph unicode="&#x152;" horiz-adv-x="1409" d="M47 760q0 248 25.5 397.5t109.5 237.5q123 123 367 123h803v-273h-420v-352h385v-248h-385v-385h426v-260h-803q-246 0 -365 113q-88 86 -115.5 235.5t-27.5 411.5zM340 756q0 -309 34 -401.5t173 -92.5h112v983h-108q-141 0 -176 -92t-35 -397z" />
<glyph unicode="&#x153;" horiz-adv-x="1382" d="M39 582q0 182 22.5 299.5t92.5 191.5q102 106 299 107q182 0 264 -88q82 88 264 88q186 0 266 -93q63 -74 81 -220t9 -416h-493q8 -127 43 -173.5t121 -46.5q117 0 249 54l84 -232q-175 -69 -372 -69q-160 0 -252 92q-96 -92 -264 -92q-190 0 -289 98 q-76 72 -100.5 191.5t-24.5 308.5zM317 571.5q0 -96.5 4.5 -149.5t16.5 -101.5t41 -68t74 -19.5q84 0 107.5 75t23.5 263.5t-23.5 264t-107.5 75.5q-45 0 -73 -19.5t-41 -67.5t-17.5 -102t-4.5 -150.5zM842 674h254q-2 143 -23.5 194.5t-93.5 51.5q-74 0 -103.5 -54.5 t-33.5 -191.5z" />
<glyph unicode="&#x178;" horiz-adv-x="997" d="M-10 1518h299l213 -650l215 650h291l-367 -1012v-506h-287v512zM213 1581v260h237v-260h-237zM544 1581v260h240v-260h-240z" />
<glyph unicode="&#x2c6;" horiz-adv-x="792" d="M78 1382l274 185h88l277 -185l-82 -149l-240 100l-235 -100z" />
<glyph unicode="&#x2dc;" horiz-adv-x="792" d="M51 1307q39 123 92.5 178t128.5 55q41 0 113 -30.5t86 -30.5q27 0 41 14t29 59l200 -67q-41 -123 -94 -178.5t-129 -55.5q-39 0 -110.5 31t-88.5 31q-27 0 -39 -14.5t-26 -59.5z" />
<glyph unicode="&#x2000;" horiz-adv-x="951" />
<glyph unicode="&#x2001;" horiz-adv-x="1902" />
<glyph unicode="&#x2002;" horiz-adv-x="951" />
<glyph unicode="&#x2003;" horiz-adv-x="1902" />
<glyph unicode="&#x2004;" horiz-adv-x="634" />
<glyph unicode="&#x2005;" horiz-adv-x="475" />
<glyph unicode="&#x2006;" horiz-adv-x="317" />
<glyph unicode="&#x2007;" horiz-adv-x="317" />
<glyph unicode="&#x2008;" horiz-adv-x="237" />
<glyph unicode="&#x2009;" horiz-adv-x="380" />
<glyph unicode="&#x200a;" horiz-adv-x="105" />
<glyph unicode="&#x2010;" horiz-adv-x="561" d="M47 555v262h465v-262h-465z" />
<glyph unicode="&#x2011;" horiz-adv-x="561" d="M47 555v262h465v-262h-465z" />
<glyph unicode="&#x2012;" horiz-adv-x="561" d="M47 555v262h465v-262h-465z" />
<glyph unicode="&#x2013;" horiz-adv-x="1005" d="M47 553v264h911v-264h-911z" />
<glyph unicode="&#x2014;" horiz-adv-x="1302" d="M47 553v264h1208v-264h-1208z" />
<glyph unicode="&#x2018;" horiz-adv-x="452" d="M72 864v250q0 184 39 260t180 154l86 -139q-82 -55 -102.5 -82t-20.5 -84h127v-359h-309z" />
<glyph unicode="&#x2019;" horiz-adv-x="452" d="M72 1159v359h309v-250q0 -182 -39 -259t-180 -155l-86 139q82 55 102.5 82t20.5 84h-127z" />
<glyph unicode="&#x201a;" horiz-adv-x="1679" d="M23 537l102 165q74 -51 164 -51q57 0 78.5 34t21.5 128q0 90 -15.5 121t-62.5 31q-41 0 -78 -25l-165 45l16 494h471v-197h-283l-4 -164q57 31 127 31q123 0 170 -74t47 -262q0 -195 -69.5 -275.5t-231.5 -80.5q-176 0 -288 80zM438 0l547 1479h232l-547 -1479h-232z M1026 285q0 111 22.5 174t92.5 94q-51 31 -68.5 80t-17.5 139q0 111 63 180q70 70 209 70q147 0 213 -70q61 -68 62 -180q0 -88 -18.5 -139t-70.5 -80q76 -31 97.5 -92.5t21.5 -175.5q0 -160 -84 -236q-74 -67 -221 -67q-145 0 -219 67q-82 76 -82 236zM1247 309 q0 -84 14.5 -118.5t65.5 -34.5q53 0 68.5 33.5t15.5 119.5t-15.5 122t-68.5 36q-51 0 -65.5 -36t-14.5 -122zM1268 731.5q0 -65.5 11 -92.5t48 -27q39 0 51.5 28t12.5 91q0 66 -12.5 90.5t-51.5 24.5q-37 0 -48 -24.5t-11 -90z" />
<glyph unicode="&#x201c;" horiz-adv-x="831" d="M72 870v248q0 180 37.5 254t177.5 150l82 -131q-82 -55 -101.5 -81t-19.5 -85h125v-355h-301zM459 870v248q0 180 38 254t177 150l82 -131q-82 -55 -101.5 -81t-19.5 -85h125v-355h-301z" />
<glyph unicode="&#x201d;" horiz-adv-x="831" d="M72 1163v355h301v-246q0 -180 -38 -254t-177 -152l-82 133q80 53 100.5 80t20.5 84h-125zM459 1163v355h301v-246q0 -180 -38 -254t-175 -152l-84 133q82 53 101.5 80t19.5 84h-125z" />
<glyph unicode="&#x201e;" horiz-adv-x="831" d="M72 0v354h301v-248q0 -176 -39 -251.5t-176 -151.5l-82 131q82 55 101.5 82t19.5 84h-125zM459 0v354h301v-248q0 -176 -38 -251.5t-175 -151.5l-84 131q82 53 101.5 81t19.5 85h-125z" />
<glyph unicode="&#x2022;" horiz-adv-x="579" d="M117 391v463h346v-463h-346z" />
<glyph unicode="&#x2026;" horiz-adv-x="1304" d="M72 0v348h309v-348h-309zM498 0v348h311v-348h-311zM924 0v348h311v-348h-311z" />
<glyph unicode="&#x202f;" horiz-adv-x="380" />
<glyph unicode="&#x2039;" horiz-adv-x="1570" d="M47 1214v230q119 0 191 35h159v-994h-243v750q-47 -20 -107 -21zM330 0l547 1479h231l-547 -1479h-231zM909 442q0 358 107 467q90 96 330 97h88v-201h-86q-131 0 -171 -41t-42 -146q41 66 155 66q135 0 182.5 -84t47.5 -250q0 -223 -88 -303q-70 -65 -211 -65 q-135 0 -207 67q-104 96 -105 393zM1141 358q0 -113 14.5 -152.5t69.5 -39.5q49 0 61 39t12 147q0 94 -13 131t-58 37t-65.5 -34.5t-20.5 -127.5z" />
<glyph unicode="&#x203a;" horiz-adv-x="1570" d="M47 1214v230q119 0 191 35h159v-994h-243v750q-47 -20 -107 -21zM330 0l547 1479h231l-547 -1479h-231zM915 285q0 111 24 174t93 94q-51 31 -68.5 80t-17.5 139q0 115 64 180q66 70 209 70q147 0 213 -70q61 -72 61 -180q0 -88 -18.5 -139t-69.5 -80q76 -31 97.5 -92.5 t21.5 -175.5q0 -160 -84 -236q-74 -67 -221.5 -67t-219.5 67q-84 78 -84 236zM1137 309q0 -84 15.5 -118.5t66.5 -34.5q53 0 68.5 33.5t15.5 119.5t-15.5 122t-68.5 36q-51 0 -66.5 -36t-15.5 -122zM1157 731.5q0 -65.5 11.5 -92.5t50 -27t51 28t12.5 91q0 66 -12.5 90.5 t-51 24.5t-50 -24.5t-11.5 -90z" />
<glyph unicode="&#x205f;" horiz-adv-x="475" />
<glyph unicode="&#x20ac;" horiz-adv-x="987" d="M35 477v203h155v92h-155v203h162q23 276 133 397q113 123 332 123q176 0 303 -70l-134 -239q-82 39 -153 39q-90 0 -137 -56.5t-64 -193.5h258v-203h-268v-92h268v-203h-256q18 -127 64.5 -179t134.5 -52q68 0 170 51l129 -227q-129 -86 -313 -86q-211 0 -324 112 q-113 111 -139 381h-166z" />
<glyph unicode="&#x2122;" horiz-adv-x="1488" d="M41 1327v191h563v-191h-182v-809h-205v809h-176zM649 518v1000h240l123 -596l125 596h239v-1000h-192v567l-113 -567h-129l-111 569v-569h-182z" />
<glyph unicode="&#xe000;" horiz-adv-x="1157" d="M0 0v1157h1157v-1157h-1157z" />
<glyph unicode="&#xfb01;" horiz-adv-x="1003" d="M20 911v248h140v90q0 166 77.5 240t249.5 74h82v-252h-32q-63 0 -83 -20.5t-20 -78.5v-53h135v-248h-135v-911h-274v911h-140zM645 0v1159h279v-1159h-279zM645 1251v283h279v-283h-279z" />
<glyph unicode="&#xfb02;" horiz-adv-x="1003" d="M20 911v248h140v90q0 166 77.5 240t249.5 74h82v-252h-32q-63 0 -83 -20.5t-20 -78.5v-53h135v-248h-135v-911h-274v911h-140zM645 0v1563h279v-1563h-279z" />
</font>
</defs>
</svg>
